<?xml version="1.0" encoding="UTF-8"?>
<svg width="70px" height="70px" viewBox="0 0 70 70" version="1.1" xmlns="http://www.w3.org/2000/svg" xmlns:xlink="http://www.w3.org/1999/xlink">
    <!-- Generator: Sketch 52.4 (67378) - http://www.bohemiancoding.com/sketch -->
    <title>疆域icon</title>
    <desc>Created with Sketch.</desc>
    <defs>
        <rect id="path-1" x="0" y="0" width="62" height="62" rx="2"></rect>
    </defs>
    <g id="Page-1" stroke="none" stroke-width="1" fill="none" fill-rule="evenodd">
        <g id="时间地图-搜索结果页" transform="translate(-262.000000, -334.000000)">
            <g id="Group" transform="translate(8.000000, 8.000000)">
                <g id="Group-3-Copy-3" transform="translate(0.000000, 51.000000)">
                    <g id="list">
                        <g id="Group">
                            <g id="list">
                                <g id="Stacked-Group">
                                    <g id="Group-7" transform="translate(24.000000, 271.000000)">
                                        <g id="3">
                                            <g id="分组-22">
                                                <g id="分组-20" transform="translate(230.000000, 4.000000)">
                                                    <rect id="Rectangle-48-Copy" stroke="#DDDDDD" fill="#FFFFFF" x="0.5" y="0.5" width="69" height="69" rx="2"></rect>
                                                    <g id="路径-5" transform="translate(4.000000, 4.000000)">
                                                        <g id="路径-4">
                                                            <mask id="mask-2" fill="white">
                                                                <use xlink:href="#path-1"></use>
                                                            </mask>
                                                            <use id="Mask" fill="#F7F1F0" xlink:href="#path-1"></use>
                                                            <ellipse id="椭圆形" fill="#9AC6EA" mask="url(#mask-2)" cx="53.5" cy="-1.5" rx="14.5" ry="8.5"></ellipse>
                                                            <g id="分组-14" mask="url(#mask-2)" fill="#EDDAD7">
                                                                <g transform="translate(21.735325, 42.057412) rotate(-50.000000) translate(-21.735325, -42.057412) translate(19.235325, 34.057412)">
                                                                    <path d="M2.5,0 L2.5,0 C3.88071187,-2.53632657e-16 5,1.11928813 5,2.5 L5,4 L0,4 L0,2.5 C-1.69088438e-16,1.11928813 1.11928813,2.53632657e-16 2.5,0 Z" id="矩形"></path>
                                                                    <path d="M2.5,16 C1.11928813,16 0,15.1045695 0,14 L0,12 L5,12 L5,14 C5,15.1045695 3.88071187,16 2.5,16 Z" id="矩形-copy-40"></path>
                                                                    <rect id="矩形-copy-35" x="0" y="5" width="5" height="6"></rect>
                                                                </g>
                                                            </g>
                                                            <polygon stroke="#FFFFFF" stroke-width="3" mask="url(#mask-2)" points="-16 11 10 -9.39352157 31 -21 30.9784411 -11 -24 34"></polygon>
                                                            <polyline id="路径-7" stroke="#FFFFFF" stroke-width="3" mask="url(#mask-2)" points="-5 21.5039627 11.9598227 21.5039627 39.9598227 -2.57142857"></polyline>
                                                            <polyline id="路径-8" stroke="#FFFFFF" stroke-width="3" mask="url(#mask-2)" points="25 -1.44974747 39 14 18 31 -6.02155887 11"></polyline>
                                                            <polyline id="路径-9" stroke="#FFFFFF" stroke-width="3" mask="url(#mask-2)" points="-4 50 39.9598227 12.6923882 70 9"></polyline>
                                                            <path d="M11.9784411,70.8027344 C23.7316265,66.3740058 32.101443,61.439761 37.0878906,56 C44.5675621,47.8403584 43.353479,42.3586482 50,35 C54.431014,30.0942345 60.431014,26.4275678 68,24" id="路径-5" stroke="#9AC6EA" stroke-width="4" mask="url(#mask-2)"></path>
                                                            <polyline id="路径-6" stroke="#FFFFFF" stroke-width="3" mask="url(#mask-2)" points="3.95982272 70 36.9799114 44 43 30 70 11"></polyline>
                                                            <polyline id="路径-10" stroke="#FFFFFF" stroke-width="3" mask="url(#mask-2)" points="-4 15 36 44 75.9598227 56"></polyline>
                                                            <path d="M43,31 L31,21" id="路径-11" stroke="#FFFFFF" stroke-width="3" mask="url(#mask-2)"></path>
                                                            <path d="M27,54 L9,39" id="路径-11-copy" stroke="#FFFFFF" stroke-width="3" mask="url(#mask-2)"></path>
                                                            <path d="M3.9054245,45.7792213 L3.9054245,45.7792213 C7.219133,45.7792213 9.9054245,48.4655128 9.9054245,51.7792213 L9.9054245,69.7792213 L-2.0945755,69.7792213 L-2.0945755,51.7792213 C-2.0945755,48.4655128 0.591716001,45.7792213 3.9054245,45.7792213 Z" id="矩形" fill="#C2CBB9" mask="url(#mask-2)" transform="translate(3.905424, 57.779221) rotate(-315.000000) translate(-3.905424, -57.779221) "></path>
                                                            <path d="M56.7279221,54.7279221 L56.7279221,54.7279221 C60.0416306,54.7279221 62.7279221,57.4142136 62.7279221,60.7279221 L62.7279221,78.7279221 L50.7279221,78.7279221 L50.7279221,60.7279221 C50.7279221,57.4142136 53.4142136,54.7279221 56.7279221,54.7279221 Z" id="矩形-copy-41" fill="#C2CBB9" mask="url(#mask-2)" transform="translate(56.727922, 66.727922) rotate(-315.000000) translate(-56.727922, -66.727922) "></path>
                                                            <path d="M5.35317807,-10.5102001 L5.35317807,-10.5102001 C8.42245424,-10.7805795 11.12978,-8.5116254 11.4001595,-5.44234923 C11.4265175,-5.14314013 11.4286685,-4.84229104 11.4065917,-4.54273563 L10.0535566,13.8162754 L-1.18246107,11.065539 L-1.18246107,-3.37351174 C-1.18246107,-7.08660383 1.65440992,-10.1843673 5.35317807,-10.5102001 Z" id="矩形-copy-32" fill="#C2CBB9" mask="url(#mask-2)" transform="translate(5.119610, 1.642107) rotate(-315.000000) translate(-5.119610, -1.642107) "></path>
                                                            <path d="M43.1186529,20.7644796 L52.2414048,9.17769742 C52.5830546,8.743769 53.211785,8.66896236 53.6457134,9.01061213 C53.9388215,9.24138822 54.0791026,9.61613091 54.0095866,9.98265167 L50.8434568,26.675958 C50.7653591,27.0877256 50.4387769,27.4071083 50.025371,27.4760093 L43.505737,28.562615 C42.9609666,28.65341 42.4457391,28.2853904 42.3549441,27.74062 C42.3409067,27.6563958 42.3377143,27.5707206 42.3454448,27.4856853 L42.9084566,21.2925554 C42.9259703,21.0999046 42.9989854,20.9164689 43.1186529,20.7644796 Z" id="矩形-copy-34" fill="#C2CBB9" mask="url(#mask-2)" transform="translate(48.500000, 17.369686) rotate(-315.000000) translate(-48.500000, -17.369686) "></path>
                                                            <path d="M9.85570764,17.8419289 L6.99838061,14.711751 C6.92391228,14.6301716 6.92967697,14.5036699 7.01125641,14.4292016 C7.01284179,14.4277544 7.01445038,14.4263328 7.01608153,14.4249374 L12.0510184,10.1176958 C12.1291149,10.0508866 12.2451347,10.0541428 12.3193611,10.125227 L14.8470665,12.5459287 C14.9268416,12.6223267 14.9295793,12.7489301 14.8531812,12.8287053 C14.8505496,12.8314532 14.84784,12.8341256 14.8450559,12.836719 L13.4676497,14.1197765 C13.3903345,14.1917959 13.270336,14.1912489 13.1936805,14.1185277 L12.6574708,13.6098387 C12.5799886,13.5363332 12.4584242,13.5366758 12.3813575,13.6106169 L10.8364227,15.0928928 C10.7567182,15.1693646 10.7540977,15.2959705 10.8305695,15.3756749 C10.8315247,15.3766705 10.8324902,15.3776562 10.8334658,15.3786318 L11.5507688,16.0959348 C11.6276512,16.1728172 11.6290292,16.2970364 11.5538712,16.3756054 L10.1479441,17.8453414 C10.0715911,17.9251597 9.94498929,17.9279689 9.86517099,17.8516159 C9.8619081,17.8484947 9.85875184,17.8452638 9.85570764,17.8419289 Z" id="路径-12" fill="#EDDAD7" mask="url(#mask-2)"></path>
                                                            <path d="M18.9965768,10.8419289 L16.1392498,7.71175104 C16.0647814,7.63017161 16.0705461,7.50366989 16.1521255,7.42920156 C16.1537109,7.42775436 16.1553195,7.42633279 16.1569507,7.42493738 L21.1918876,3.11769584 C21.269984,3.05088662 21.3860038,3.05414277 21.4602302,3.12522699 L23.9879356,5.54592867 C24.0677108,5.62232674 24.0704484,5.74893014 23.9940503,5.82870528 C23.9914187,5.83145325 23.9887092,5.83412556 23.9859251,5.83671896 L22.6085189,7.1197765 C22.5312036,7.19179586 22.4112051,7.19124888 22.3345496,7.11852769 L21.79834,6.60983874 C21.7208577,6.53633323 21.5992934,6.53667583 21.5222266,6.61061689 L19.9772918,8.09289278 C19.8975874,8.1693646 19.8949668,8.29597047 19.9714386,8.37567492 C19.9723938,8.37667051 19.9733593,8.37765619 19.9743349,8.3786318 L20.6916379,9.0959348 C20.7685203,9.17281717 20.7698983,9.29703645 20.6947404,9.37560544 L19.2888132,10.8453414 C19.2124603,10.9251597 19.0858584,10.9279689 19.0060401,10.8516159 C19.0027772,10.8484947 18.999621,10.8452638 18.9965768,10.8419289 Z" id="路径-12-copy" fill="#EDDAD7" mask="url(#mask-2)"></path>
                                                            <path d="M-5.04017728,34 L3.6413215,25.3185012 C3.82234446,25.1374783 4.11085698,25.1224304 4.30972962,25.2836392 L11.5028268,31.1144606 C11.7173427,31.2883501 11.7502769,31.6032148 11.5763874,31.8177307 C11.5552574,31.8437974 11.531557,31.8676709 11.5056448,31.88899 L-5.04017728,45.5019531 L-5.04017728,34 Z" id="路径-13" fill="#EDDAD7" mask="url(#mask-2)"></path>
                                                            <path d="M18.1988364,22.7692952 L19.6770788,24.3028235 C20.0516825,24.6914373 20.667088,24.7126367 21.0675457,24.3507221 L23.1599819,22.4596782 C23.5697265,22.0893706 23.6016965,21.4570132 23.2313889,21.0472686 C23.2246982,21.0398654 23.2178971,21.0325628 23.2109879,21.0253632 L21.8030178,19.5582185 C21.437805,19.1776565 20.8398054,19.1461858 20.4366653,19.486312 L18.2739569,21.3109722 C17.8518383,21.6671103 17.7983506,22.298012 18.1544887,22.7201306 C18.1687246,22.7370038 18.1835152,22.753401 18.1988364,22.7692952 Z" id="路径-14" fill="#EDDAD7" mask="url(#mask-2)"></path>
                                                            <path d="M23.8163843,17.9594379 L25.4250248,19.6908753 C25.7859445,20.0793461 26.3873369,20.118561 26.7956478,19.7802492 L33.2725529,14.413717 C33.6978255,14.0613513 33.7569283,13.4309508 33.4045625,13.0056782 C33.3927896,12.9914693 33.3806256,12.977589 33.3680846,12.9640533 L31.7796358,11.2496139 C31.4196999,10.861129 30.8192984,10.8206325 30.4104542,11.1572639 L23.9133574,16.506798 C23.4869994,16.8578497 23.4259515,17.4880648 23.7770032,17.9144228 C23.7896785,17.9298171 23.8028114,17.9448288 23.8163843,17.9594379 Z" id="路径-14-copy" fill="#EDDAD7" mask="url(#mask-2)"></path>
                                                            <path d="M51.158349,45.3541175 L59.6600121,47.7811326 C60.1449218,47.9195624 60.657032,47.6752803 60.8545888,47.2113066 L62.0644146,44.3699602 C62.2807769,43.8618207 62.0442448,43.2744959 61.5361052,43.0581335 C61.5127277,43.0481795 61.4889792,43.0391201 61.4649116,43.030975 L53.3345077,40.2794438 C52.8613054,40.1193003 52.342511,40.3329444 52.1193068,40.7798741 L50.5382218,43.9457368 C50.2914631,44.4398305 50.4919678,45.04041 50.9860615,45.2871687 C51.0413006,45.3147561 51.0989761,45.3371681 51.158349,45.3541175 Z" id="路径-15" fill="#EDDAD7" mask="url(#mask-2)"></path>
                                                            <path d="M55.158349,39.3541175 L63.6600121,41.7811326 C64.1449218,41.9195624 64.657032,41.6752803 64.8545888,41.2113066 L66.0644146,38.3699602 C66.2807769,37.8618207 66.0442448,37.2744959 65.5361052,37.0581335 C65.5127277,37.0481795 65.4889792,37.0391201 65.4649116,37.030975 L57.3345077,34.2794438 C56.8613054,34.1193003 56.342511,34.3329444 56.1193068,34.7798741 L54.5382218,37.9457368 C54.2914631,38.4398305 54.4919678,39.04041 54.9860615,39.2871687 C55.0413006,39.3147561 55.0989761,39.3371681 55.158349,39.3541175 Z" id="路径-15-copy" fill="#EDDAD7" mask="url(#mask-2)"></path>
                                                            <path d="M27.0416068,30.2274751 L29.3608274,27.6787353 C29.7101687,27.2948217 30.2951693,27.242019 30.7076092,27.5571734 L36.4717133,31.9616527 C36.8224135,32.2296305 36.9559561,32.6958328 36.8003248,33.1088482 L35.6245947,36.2290085 C35.4298515,36.7458194 34.8530228,37.0069068 34.3362119,36.8121636 C34.2537783,36.7811012 34.1758106,36.7392826 34.1043329,36.6877935 L27.1967385,31.7118938 C26.7486152,31.3890873 26.6470259,30.7641253 26.9698324,30.3160021 C26.9920549,30.2851527 27.0160186,30.2555957 27.0416068,30.2274751 Z" id="路径-16" fill="#EDDAD7" mask="url(#mask-2)"></path>
                                                            <path d="M42.2134946,60.6315527 L45.4404628,56.684411 C45.7600073,56.2935527 46.3207713,56.2021768 46.7478706,56.4713702 L49.8746561,58.4421304 C50.3418798,58.7366136 50.4819137,59.3540992 50.1874304,59.821323 C50.1793971,59.8340686 50.1710767,59.846631 50.1624757,59.8590007 L48.3313961,62.4923929 C48.1150937,62.8034713 47.7415587,62.965588 47.366606,62.9111185 L42.8439319,62.2541078 C42.297384,62.1747105 41.9186836,61.6672818 41.9980809,61.120734 C42.0241693,60.9411485 42.0986341,60.772047 42.2134946,60.6315527 Z" id="路径-17" fill="#EDDAD7" mask="url(#mask-2)"></path>
                                                        </g>
                                                    </g>
                                                </g>
                                            </g>
                                        </g>
                                    </g>
                                </g>
                            </g>
                        </g>
                    </g>
                </g>
            </g>
        </g>
    </g>
</svg>