<?xml version="1.0" encoding="UTF-8" standalone="no"?>
<svg width="170px" height="170px" viewBox="0 0 170 170" version="1.1" xmlns="http://www.w3.org/2000/svg" xmlns:xlink="http://www.w3.org/1999/xlink">
    <!-- Generator: Sketch 47 (45396) - http://www.bohemiancoding.com/sketch -->
    <title>人物</title>
    <desc>Created with Sketch.</desc>
    <defs>
        <circle id="path-1" cx="85.4930664" cy="83.7930664" r="68.4930664"></circle>
        <circle id="path-3" cx="68" cy="68" r="68"></circle>
        <path d="M113.963695,114.188837 L111.767861,101.651642 C110.537241,94.6254232 107.308061,88.247311 102.428999,83.2066378 C97.6073825,78.2251555 91.530654,74.904935 84.8560941,73.6048071 C82.7983071,73.2038287 80.6939849,73.0006909 78.6007955,73.0006909 L71.988134,73.0006909 C71.3858494,73.0006909 70.8085023,73.2482795 70.3823387,73.6886417 L57.0000431,87.5305709 L43.6179702,73.6879508 C43.1920292,73.2475886 42.6144594,73 42.0121749,73 L35.3992907,73 C33.3061013,73 31.2020018,73.2031378 29.1448827,73.6038858 C22.4694321,74.9042441 16.392481,78.2244646 11.570642,83.2059469 C6.69180296,88.2466201 3.46262251,94.6247323 2.23200261,101.650951 L0.036391469,114.188837 C-0.083620133,114.873793 0.0965085981,115.578787 0.527793335,116.113118 C0.959300728,116.647219 1.59787823,116.956301 2.27096742,116.956301 C27.3861818,130.539294 45.8441386,137.330791 57.6448378,137.330791 C69.4455371,137.330791 87.4736308,130.539294 111.729119,116.956301 C112.402208,116.956301 113.040563,116.647449 113.472293,116.113118 C113.903578,115.578787 114.083484,114.873793 113.963695,114.188837 Z" id="path-5"></path>
    </defs>
    <g id="Page-1" stroke="none" stroke-width="1" fill="none" fill-rule="evenodd">
        <g id="九大类icon-copy-2" transform="translate(-423.000000, -412.000000)">
            <g id="人物" transform="translate(423.000000, 412.000000)">
                <rect id="Rectangle-6" fill="#F3F3F5" x="0" y="0" width="170" height="170"></rect>
                <g>
                    <g id="Group-4" fill="#F3F3F5">
                        <circle id="Mask-Copy" cx="85" cy="85" r="85"></circle>
                    </g>
                    <mask id="mask-2" fill="white">
                        <use xlink:href="#path-1"></use>
                    </mask>
                    <g id="Oval-3"></g>
                    <g id="man-(1)" opacity="0.800000012" mask="url(#mask-2)">
                        <g transform="translate(17.000000, 17.000000)">
                            <mask id="mask-4" fill="white">
                                <use xlink:href="#path-3"></use>
                            </mask>
                            <use id="Mask" stroke="none" fill="#F3F3F5" fill-rule="evenodd" xlink:href="#path-3"></use>
                            <g id="man-(1)" stroke="none" stroke-width="1" fill="none" fill-rule="evenodd" mask="url(#mask-4)">
                                <g transform="translate(11.000000, 10.000000)">
                                    <path d="M63.2627578,15.6572717 C63.2627578,15.6572717 61.8393828,18.4072323 67.5328828,21.3467421 C69.8509375,22.5434587 74.1037773,23.7088524 78.3314961,24.670187 L78.738043,18.4387854 C79.2987734,9.84734646 72.476668,2.57123622 63.8615156,2.57123622 L50.1380234,2.57123622 C41.5228711,2.57123622 34.7009961,9.84757677 35.2614961,18.4387854 L35.8715469,27.7851969 C57.494125,26.5831831 63.2627578,15.6572717 63.2627578,15.6572717 Z" id="Shape" fill="#F19657" fill-rule="nonzero"></path>
                                    <path d="M67.6611055,21.6894705 C61.9676055,18.7499606 63.3909805,16 63.3909805,16 C63.3909805,16 57.6223477,26.9261417 36,28.1276949 L37.4242969,49.9530315 C37.8631094,56.6766161 41.7045625,62.7117894 47.6123984,65.9587697 L47.6123984,65.9587697 C53.53775,69.2154232 60.7189258,69.2154232 66.6442773,65.9587697 L66.6442773,65.9587697 C72.5521133,62.7117894 76.3935664,56.6766161 76.8323789,49.9530315 L78.4599492,25.0129154 C74.232,24.0515807 69.9791602,22.886187 67.6611055,21.6894705 Z" id="Shape" fill="#FFEDEB" fill-rule="nonzero"></path>
                                    <path d="M111.376566,101.891569 C108.938668,88.443939 98.4350547,78.1875531 85.3969766,75.7342382 L57,104.112496 L28.6030234,75.7342382 C15.5649453,78.1875531 5.06110156,88.4441693 2.62343359,101.891569 L0.350550781,114.428994 L113.649449,114.428994 L111.376566,101.891569 Z" id="Shape" fill="#BCC987" fill-rule="nonzero"></path>
                                    <path d="M85.397207,75.7342382 C83.435457,75.3650433 81.4167813,75.1708878 79.3586953,75.1708878 L72.5140039,75.1708878 L57,90.6743091 L41.4862266,75.1708878 L34.6413047,75.1708878 C32.5834492,75.1708878 30.5647734,75.3650433 28.602793,75.7342382 L57,104.112496 L85.397207,75.7342382 Z" id="Shape" fill="#FFE6B8" fill-rule="nonzero"></path>
                                    <g id="Group" stroke-width="1" fill="none" fill-rule="evenodd">
                                        <path d="M33.5262969,27.9378957 L34.9508242,49.7632323 C35.4442578,57.3260846 39.7060859,64.0220315 46.3516523,67.6745965 C49.6863047,69.5072126 53.3424609,70.4231752 57.0002305,70.4231752 C60.6573086,70.4231752 64.3153086,69.506752 67.6488086,67.6748268 C74.2941445,64.0220315 78.5562031,57.3260846 79.0496367,49.7632323 L80.677207,24.8235768 L80.677207,24.8233465 L81.0837539,18.5914843 C81.3978828,13.781126 79.7541797,9.19486417 76.4561719,5.67726378 C73.1583945,2.15943307 68.6852266,0.222023622 63.8617461,0.222023622 L50.1382539,0.222023622 C45.314543,0.222023622 40.8416055,2.15920276 37.5438281,5.67726378 C34.2460508,9.19486417 32.6023477,13.781126 32.9162461,18.5914843 L33.5262969,27.9378957 Z M65.3828398,63.5581772 C60.1339141,66.4431024 53.8658555,66.4433327 48.6169297,63.5579469 C43.3852891,60.6826949 40.030125,55.4112461 39.6413242,49.4576043 L38.3684453,29.9543031 C51.6079531,28.7407736 58.829,23.9046201 62.3867461,20.4328524 C63.3381211,21.5231634 64.6971953,22.5273366 66.4533672,23.4340866 C68.3505859,24.4136161 71.5084688,25.443124 75.8560313,26.5014213 L74.3579844,49.4576043 C73.9696445,55.4114764 70.6147109,60.6826949 65.3828398,63.5581772 Z M73.0256445,8.88923622 C75.4250547,11.4487264 76.6211875,14.7859902 76.3925625,18.285626 L76.1671641,21.7389685 C71.8108438,20.6447421 69.6642578,19.8036319 68.611707,19.2600886 C66.0486641,17.9364685 65.469957,16.8417815 65.4545156,16.505752 C65.4563594,16.5011457 65.4575117,16.4963091 65.459125,16.4917028 C65.4605078,16.488248 65.4621211,16.4850236 65.4632734,16.4815689 L69.334457,6.16507087 C70.7006758,6.82722638 71.9495859,7.74157677 73.0256445,8.88923622 Z M40.9743555,8.88923622 C43.3739961,6.32974606 46.6284453,4.9202185 50.1382539,4.9202185 L63.8617461,4.9202185 C64.1661953,4.9202185 64.4676484,4.93472835 64.7679492,4.95568701 L61.1320742,14.6452677 C60.8294688,15.1333051 59.3726758,17.2943504 56.0472422,19.5380787 C52.7999375,21.729065 47.1126602,24.4122343 38.0628438,25.2662421 L37.607207,18.2858563 C37.3788125,14.7859902 38.5749453,11.4489567 40.9743555,8.88923622 Z" id="Shape" fill="#000000" fill-rule="nonzero"></path>
                                        <g id="Shape" fill-rule="nonzero">
                                            <use fill="#A5BCFF" fill-rule="evenodd" xlink:href="#path-5"></use>
                                            <path stroke="#000000" stroke-width="4.5" d="M72.0012675,75.2506909 L71.988134,75.2506909 C71.9964327,75.2506909 72.0013044,75.2494 72.0012615,75.2506909 Z M111.747354,114.576565 L109.551598,102.039813 C108.398267,95.4548753 105.376807,89.4871968 100.812278,84.7714746 C96.3094141,80.1193132 90.6461504,77.0249319 84.4257552,75.81327 C82.5100616,75.4399798 80.5498564,75.2506909 78.6007955,75.2506909 L72.0012675,75.2506909 C72.0012492,75.2510637 72.0008271,75.2516516 71.9999595,75.252548 L56.9999893,90.7677131 L55.3823703,89.0944234 L42.000719,75.2522394 C41.9996254,75.2511087 41.9991461,75.2504117 41.9992196,75.25 L35.3992907,75.25 C33.4504726,75.25 31.4904501,75.4392425 29.5750898,75.8123744 C23.3539736,77.0242297 17.6904545,80.1186017 13.1873737,84.7707723 C8.62301006,89.4865388 5.6015842,95.4542568 4.4482767,102.039061 L2.25263076,114.577145 C2.24429593,114.624715 2.25650915,114.672534 2.27797098,114.699124 C2.28229121,114.704472 2.28277531,114.705951 2.27993688,114.706301 L2.84042471,114.706301 L3.3413199,114.977199 C28.1487565,128.393738 46.3228572,135.080791 57.6448378,135.080791 C68.9555155,135.080791 86.6869872,128.401037 110.629766,114.99316 L111.142017,114.706301 L111.719542,114.706301 C111.717287,114.70591 111.717788,114.70448 111.721461,114.699935 C111.743472,114.672665 111.755735,114.624682 111.747354,114.576565 Z"></path>
                                        </g>
                                    </g>
                                </g>
                            </g>
                        </g>
                    </g>
                </g>
            </g>
        </g>
    </g>
</svg>