<?xml version="1.0" encoding="UTF-8" standalone="no"?>
<svg width="170px" height="170px" viewBox="0 0 170 170" version="1.1" xmlns="http://www.w3.org/2000/svg" xmlns:xlink="http://www.w3.org/1999/xlink">
    <!-- Generator: Sketch 47 (45396) - http://www.bohemiancoding.com/sketch -->
    <title>创造</title>
    <desc>Created with Sketch.</desc>
    <defs></defs>
    <g id="Page-1" stroke="none" stroke-width="1" fill="none" fill-rule="evenodd">
        <g id="九大类icon-copy-2" transform="translate(-198.000000, -412.000000)">
            <g id="创造" transform="translate(198.000000, 412.000000)">
                <circle id="Oval-2" fill="#FFFFFF" cx="85" cy="85" r="85"></circle>
                <rect id="Rectangle-6" fill="#F3F3F5" x="0" y="0" width="170" height="170"></rect>
                <g id="Group-2" opacity="0.797950634" transform="translate(29.000000, 23.548673)">
                    <path d="M55.9998268,13.7415519 C57.2377993,13.7415519 58.2489761,12.730375 58.2489761,11.4924026 L58.2489761,2.51129384 C58.2489761,1.27000239 57.2377993,0.26214454 55.9998268,0.26214454 C54.7618543,0.26214454 53.7506775,1.27000239 53.7506775,2.51129384 L53.7506775,11.4924026 C53.7506775,12.730375 54.7618543,13.7415519 55.9998268,13.7415519" id="Fill-1" stroke="#000000" stroke-width="0.3" fill="#000000"></path>
                    <path d="M109.127918,54.0738869 L100.146809,54.0738869 C98.90773,54.0738869 97.8976595,55.0850637 97.8976595,56.3230362 C97.8976595,57.5610087 98.90773,58.5721855 100.146809,58.5721855 L109.127918,58.5721855 C110.369209,58.5721855 111.377067,57.5610087 111.377067,56.3230362 C111.377067,55.0850637 110.369209,54.0738869 109.127918,54.0738869" id="Fill-5" stroke="#000000" stroke-width="0.3" fill="#000000"></path>
                    <path d="M67.0985403,90.5520146 C66.14675,90.8563129 65.499258,91.7543362 65.499258,92.7495977 L65.499258,96.9594395 L46.9244752,96.9594395 L46.9244752,92.7495977 C46.9244752,91.7543362 46.2769833,90.8563129 45.325193,90.5520146 C31.0002912,85.8342463 21.3737101,72.5412133 21.3737101,57.4704375 C21.3737101,38.2596025 37.0016037,22.631709 56.2112946,22.631709 C75.4221296,22.631709 91.0500231,38.2596025 91.0500231,57.4704375 C91.0500231,72.5412133 81.422298,85.8342463 67.0985403,90.5520146" id="Fill-9" fill="#F2D100"></path>
                    <path d="M11.8528448,54.0738869 L2.87173609,54.0738869 C1.63044465,54.0738869 0.622586795,55.0850637 0.622586795,56.3230362 C0.622586795,57.5610087 1.63044465,58.5721855 2.87173609,58.5721855 L11.8528448,58.5721855 C13.0908173,58.5721855 14.1019941,57.5610087 14.1019941,56.3230362 C14.1019941,55.0850637 13.0908173,54.0738869 11.8528448,54.0738869" id="Fill-11" stroke="#000000" stroke-width="0.3" fill="#000000"></path>
                    <path d="M86.7674276,23.8322984 C85.8912219,24.7107168 85.8912219,26.1223816 86.7674276,27.0019063 C87.2044241,27.4400091 87.7752855,27.6590606 88.3450404,27.6590606 C88.9291776,27.6590606 89.4989326,27.4400091 89.9370354,27.0019063 L96.2873143,20.6505211 C97.1745833,19.7743153 97.1745833,18.3593316 96.2873143,17.4809132 C95.408896,16.5936443 93.9939122,16.6047075 93.1177065,17.4809132 L86.7674276,23.8322984 Z" id="Fill-15" stroke="#000000" stroke-width="0.3" fill="#000000"></path>
                    <path d="M22.4098486,87.847619 L16.0584633,94.1990042 C15.1723007,95.0741037 15.1723007,96.4890874 16.0584633,97.3686121 C16.488822,97.806715 17.0696402,98.0246601 17.6393951,98.0246601 C18.2213197,98.0246601 18.7910746,97.806715 19.2291775,97.3686121 L25.5794564,91.0172269 C26.4556621,90.1388085 26.4556621,88.7238248 25.5794564,87.847619 C24.7032507,86.9692007 23.2882669,86.9692007 22.4098486,87.847619" id="Fill-19" stroke="#000000" stroke-width="0.3" fill="#000000"></path>
                    <path d="M89.5898051,87.847619 C88.7113867,86.9692007 87.2964029,86.9692007 86.4201972,87.847619 C85.5439915,88.7238248 85.5439915,90.1388085 86.4201972,91.0172269 L92.7704761,97.3686121 C93.208579,97.806715 93.778334,98.0246601 94.3602585,98.0246601 C94.9300135,98.0246601 95.5108317,97.806715 95.9411903,97.3686121 C96.8273529,96.4890874 96.8273529,95.0741037 95.9411903,94.1990042 L89.5898051,87.847619 Z" id="Fill-23" stroke="#000000" stroke-width="0.3" fill="#000000"></path>
                    <path d="M22.7570789,27.0060485 C23.1951818,27.4441513 23.7649368,27.6632028 24.3490739,27.6632028 C24.9188289,27.6632028 25.4885839,27.4441513 25.9266868,27.0060485 C26.8028925,26.1276301 26.8028925,24.714859 25.9266868,23.8364406 L19.5764079,17.4850554 C18.7002022,16.5977865 17.2852184,16.5977865 16.4056937,17.4850554 C15.5195311,18.3645801 15.5195311,19.7795639 16.4056937,20.6557696 L22.7570789,27.0060485 Z" id="Fill-27" stroke="#000000" stroke-width="0.3" fill="#000000"></path>
                    <path d="M56.7588385,29.2376981 C42.1340291,29.2376981 30.2288486,41.1428787 30.2288486,55.7676881 C30.2288486,56.9859686 31.2239409,57.9810609 32.4422214,57.9810609 C33.6637681,57.9810609 34.6555943,56.9859686 34.6555943,55.7676881 C34.6555943,43.5827058 44.5738563,33.6644438 56.7588385,33.6644438 C57.977119,33.6644438 58.9722114,32.6715289 58.9722114,31.451071 C58.9722114,30.2327905 57.977119,29.2376981 56.7588385,29.2376981" id="Fill-31" stroke="#000000" stroke-width="0.3" fill="#000000"></path>
                    <path d="M66.4906865,88.9059202 C65.5709457,89.1995095 64.9452567,90.065929 64.9452567,91.0261647 L64.9452567,95.0878513 L46.9959411,95.0878513 L46.9959411,91.0261647 C46.9959411,90.065929 46.3702521,89.1995095 45.4505114,88.9059202 C31.6079709,84.3541823 22.3055449,71.5289653 22.3055449,56.9885687 C22.3055449,38.4538124 37.4072016,23.3759046 55.9700462,23.3759046 C74.5339962,23.3759046 89.635653,38.4538124 89.635653,56.9885687 C89.635653,71.5289653 80.3321215,84.3541823 66.4906865,88.9059202 M17.8107542,56.9885687 C17.8107542,72.9284812 27.6747526,87.0428422 42.5011504,92.6144166 L42.5011504,113.00894 C42.5011504,114.244002 43.5115387,115.251697 44.7485458,115.251697 L46.9959411,115.251697 L46.9959411,119.725071 C46.9959411,120.974481 47.9919585,121.968932 49.2433365,121.968932 L62.6978614,121.968932 C63.9492394,121.968932 64.9452567,120.974481 64.9452567,119.725071 L64.9452567,115.251697 L67.1915466,115.251697 C68.4296592,115.251697 69.438942,114.244002 69.438942,113.00894 L69.438942,92.6144166 C84.2653398,87.0428422 94.1293382,72.9284812 94.1293382,56.9885687 C94.1293382,35.9803777 77.0113268,18.8892861 55.9700462,18.8892861 C34.9298711,18.8892861 17.8107542,35.9803777 17.8107542,56.9885687 Z" id="Fill-35" stroke="#000000" stroke-width="0.3" fill="#000000"></path>
                    <rect id="Rectangle-2" fill="#F2D100" x="47.1438517" y="94.1281736" width="17.6498869" height="16.8495575"></rect>
                </g>
            </g>
        </g>
    </g>
</svg>