<?xml version="1.0" encoding="UTF-8" standalone="no"?>
<svg width="170px" height="170px" viewBox="0 0 170 170" version="1.1" xmlns="http://www.w3.org/2000/svg" xmlns:xlink="http://www.w3.org/1999/xlink">
    <!-- Generator: Sketch 47 (45396) - http://www.bohemiancoding.com/sketch -->
    <title>医疗</title>
    <desc>Created with Sketch.</desc>
    <defs>
        <rect id="path-1" x="0" y="12.5588452" width="100" height="86.4411548" rx="12"></rect>
        <polygon id="path-2" points="69.797337 0.710219055 30.4704184 0.710219055 30.4704184 17.5799954 69.797337 17.5799954 69.797337 0.710219055"></polygon>
        <rect id="path-4" x="16.2922227" y="6.84351572" width="18.752672" height="22" rx="5"></rect>
        <rect id="path-5" x="65.2966498" y="6.84351572" width="18.752672" height="22" rx="5"></rect>
    </defs>
    <g id="Page-1" stroke="none" stroke-width="1" fill="none" fill-rule="evenodd">
        <g id="九大类icon-copy-2" transform="translate(-198.000000, -1044.000000)">
            <g id="医疗" transform="translate(198.000000, 1044.000000)">
                <rect id="Rectangle-6" fill="#F3F3F5" x="0" y="0" width="170" height="170"></rect>
                <g id="Group-18" opacity="0.800000012" transform="translate(35.000000, 35.500000)">
                    <g id="Rectangle-3">
                        <use fill="#FFECDA" fill-rule="evenodd" xlink:href="#path-1"></use>
                        <rect stroke="#000000" stroke-width="4" x="2" y="14.5588452" width="96" height="82.4411548" rx="12"></rect>
                    </g>
                    <path d="M33.2062842,12.6677414 L33.2062842,5.45457404 L33.2062842,5.45457404 C33.2062842,2.97581256 35.2089194,0.966379347 37.6922343,0.966379347 L62.7664881,0.966379347 C65.24401,0.966379347 67.2524383,2.96777436 67.2524383,5.45457404 L67.2524383,12.6677414" id="Rectangle-4" stroke="#000000" stroke-width="4"></path>
                    <mask id="mask-3" fill="white">
                        <use xlink:href="#path-2"></use>
                    </mask>
                    <g id="Clip-9"></g>
                    <path d="M65.448631,48.7538349 L59.9157182,48.7538349 C58.4121511,48.7538349 57.1932649,47.5710183 57.1932649,46.1117593 L57.1932649,40.7427631 C57.1932649,39.2835041 55.9741875,38.1006875 54.4706203,38.1006875 L45.5293797,38.1006875 C44.0258125,38.1006875 42.8067351,39.2835041 42.8067351,40.7427631 L42.8067351,46.1117593 C42.8067351,47.5710183 41.5878489,48.7538349 40.0842818,48.7538349 L34.551369,48.7538349 C33.0478019,48.7538349 31.8287244,49.9366516 31.8287244,51.3959105 L31.8287244,60.0723747 C31.8287244,61.5316337 33.0478019,62.7144504 34.551369,62.7144504 L40.0842818,62.7144504 C41.5878489,62.7144504 42.8067351,63.897267 42.8067351,65.356526 L42.8067351,70.7255222 C42.8067351,72.1847811 44.0258125,73.3675978 45.5293797,73.3675978 L54.4706203,73.3675978 C55.9741875,73.3675978 57.1932649,72.1847811 57.1932649,70.7255222 L57.1932649,65.356526 C57.1932649,63.897267 58.4121511,62.7144504 59.9157182,62.7144504 L65.448631,62.7144504 C66.9521981,62.7144504 68.1712756,61.5316337 68.1712756,60.0723747 L68.1712756,51.3959105 C68.1712756,49.9366516 66.9521981,48.7538349 65.448631,48.7538349" id="Fill-15" fill="#F47361"></path>
                    <path d="M34.551369,50.4417297 C34.0093655,50.4417297 33.5681865,50.8696676 33.5681865,51.3958177 L33.5681865,60.0724676 C33.5681865,60.598432 34.0093655,61.0265556 34.551369,61.0265556 L40.0842818,61.0265556 C42.5446296,61.0265556 44.5461972,62.9688924 44.5461972,65.3564331 L44.5461972,70.725615 C44.5461972,71.2517651 44.9871848,71.679703 45.5293797,71.679703 L54.4706203,71.679703 C55.0128152,71.679703 55.4538028,71.2517651 55.4538028,70.725615 L55.4538028,65.3564331 C55.4538028,62.9688924 57.4553704,61.0265556 59.9157182,61.0265556 L65.448631,61.0265556 C65.9908258,61.0265556 66.4318135,60.598432 66.4318135,60.0724676 L66.4318135,51.3958177 C66.4318135,50.8696676 65.9908258,50.4417297 65.448631,50.4417297 L59.9157182,50.4417297 C57.4553704,50.4417297 55.4538028,48.4993929 55.4538028,46.1118521 L55.4538028,40.7426703 C55.4538028,40.2165201 55.0128152,39.7885822 54.4706203,39.7885822 L45.5293797,39.7885822 C44.9871848,39.7885822 44.5461972,40.2165201 44.5461972,40.7426703 L44.5461972,46.1118521 C44.5461972,48.4993929 42.5446296,50.4417297 40.0842818,50.4417297 L34.551369,50.4417297 Z M54.4706203,75.0554926 L45.5293797,75.0554926 C43.0690319,75.0554926 41.0674643,73.1131558 41.0674643,70.725615 L41.0674643,65.3564331 C41.0674643,64.830283 40.6262853,64.4023451 40.0842818,64.4023451 L34.551369,64.4023451 C32.0910212,64.4023451 30.0894537,62.4600083 30.0894537,60.0724676 L30.0894537,51.3958177 C30.0894537,49.0080913 32.0910212,47.0657545 34.551369,47.0657545 L40.0842818,47.0657545 C40.6262853,47.0657545 41.0674643,46.6380022 41.0674643,46.1118521 L41.0674643,40.7426703 C41.0674643,38.3551295 43.0690319,36.4127927 45.5293797,36.4127927 L54.4706203,36.4127927 C56.9309681,36.4127927 58.9325357,38.3551295 58.9325357,40.7426703 L58.9325357,46.1118521 C58.9325357,46.6380022 59.3737147,47.0657545 59.9157182,47.0657545 L65.448631,47.0657545 C67.9089788,47.0657545 69.9105463,49.0080913 69.9105463,51.3958177 L69.9105463,60.0724676 C69.9105463,62.4600083 67.9089788,64.4023451 65.448631,64.4023451 L59.9157182,64.4023451 C59.3737147,64.4023451 58.9325357,64.830283 58.9325357,65.3564331 L58.9325357,70.725615 C58.9325357,73.1131558 56.9309681,75.0554926 54.4706203,75.0554926 L54.4706203,75.0554926 Z" id="Fill-17" stroke="#000000" stroke-width="0.5" fill="#000000"></path>
                    <g id="Rectangle-4">
                        <use fill="#F19657" fill-rule="evenodd" xlink:href="#path-4"></use>
                        <rect stroke="#000000" stroke-width="4" x="18.2922227" y="8.84351572" width="14.752672" height="18" rx="5"></rect>
                    </g>
                    <g id="Rectangle-4-Copy-3">
                        <use fill="#F19657" fill-rule="evenodd" xlink:href="#path-5"></use>
                        <rect stroke="#000000" stroke-width="4" x="67.2966498" y="8.84351572" width="14.752672" height="18" rx="5"></rect>
                    </g>
                </g>
            </g>
        </g>
    </g>
</svg>