<?xml version="1.0" encoding="UTF-8" standalone="no"?>
<svg width="170px" height="170px" viewBox="0 0 170 170" version="1.1" xmlns="http://www.w3.org/2000/svg" xmlns:xlink="http://www.w3.org/1999/xlink">
    <!-- Generator: Sketch 47 (45396) - http://www.bohemiancoding.com/sketch -->
    <title>地点</title>
    <desc>Created with Sketch.</desc>
    <defs>
        <polygon id="path-1" points="0.798506965 8.76888889 23.5678133 0.094867418 46.3371197 10.5036932 69.1064261 0.094867418 91.8757324 8.76888889 91.8757324 46.3547153 69.1064261 37.6806939 46.3371197 48.0895196 23.5678133 37.6806939 0.798506965 46.3547153"></polygon>
    </defs>
    <g id="Page-1" stroke="none" stroke-width="1" fill="none" fill-rule="evenodd">
        <g id="九大类icon-copy-2" transform="translate(-423.000000, -623.000000)">
            <g id="地点" transform="translate(423.000000, 623.000000)">
                <rect id="Rectangle-6" fill="#F3F3F5" x="0" y="0" width="170" height="170"></rect>
                <g>
                    <circle id="Mask-Copy" fill="#F3F3F5" cx="85" cy="85" r="85"></circle>
                    <g id="Group-8" opacity="0.8" transform="translate(37.000000, 38.000000)">
                        <g id="Group-7" transform="translate(3.286821, 43.562195)">
                            <polygon id="Rectangle-Copy" fill="#FFFFFF" points="0.850206035 9.67402147 23.6195124 1 46.3888188 11.4088258 69.1581251 1 91.9274315 9.67402147 91.9274315 47.2598479 69.1581251 38.5858265 46.3888188 48.9946522 23.6195124 38.5858265 0.850206035 47.2598479"></polygon>
                            <g id="Shape">
                                <mask id="mask-2" fill="white">
                                    <use xlink:href="#path-1"></use>
                                </mask>
                                <g id="Mask"></g>
                                <path d="M-94.0009399,282.861286 L-99.2017065,309.33468 L-105.193894,308.316472 L-105.193894,313.181241 L-39.5059503,324.720926 L-105.193894,327.436146 L-105.193894,332.18778 L-83.0341059,331.282707 L-82.6949254,343.388062 L-105.193894,344.632538 L-105.193894,347.008356 L-82.6949254,345.76388 L-82.2426849,363.865346 L-77.4941588,363.865346 L-77.9463994,348.931636 L-70.0321893,347.800295 L-70.4844298,363.865346 L-68.1101668,363.865346 L-67.6579262,347.460892 L-52.2817466,345.311343 L-41.5410329,355.040881 L-47.1940401,363.97848 L-44.3675365,363.97848 L-39.7320706,356.624759 L-31.7048003,363.97848 L-28.1999358,363.97848 L-49.2291227,344.858807 C-43.3499952,343.840599 -28.5391163,341.351648 -22.3208083,340.220306 L-26.3909735,363.97848 L-21.6424475,363.97848 L-19.6073649,352.099393 L-1.96998232,354.927747 C-2.64834319,358.095504 -3.21364391,361.150126 -3.89200478,363.97848 L0.969581431,363.97848 L2.32630316,357.19043 L10.9188741,363.97848 L18.606964,363.97848 L3.45690461,352.099393 L6.62258865,336.713147 L52.7511276,343.274928 L49.0201428,364.091614 L57.0474131,364.091614 L57.3865935,361.942065 L72.3105326,364.091614 L104.758794,364.091614 L88.3650731,361.715797 L93.6788998,339.654635 C99.5580274,340.785977 114.934207,343.727465 120.813335,344.858807 L117.19541,364.204748 L122.056996,364.204748 L124.431259,351.75999 L177.908707,361.602663 L177.456467,364.204748 L185.483737,364.204748 L186.727399,357.756101 L198.824834,359.453114 L199.842375,364.204748 L202.216638,364.204748 L201.312157,359.792516 L227.881291,363.639078 L227.768231,364.204748 L287.237867,364.204748 L277.401635,362.847138 L276.497153,348.026563 L289.15989,347.347758 L289.15989,344.971941 L276.271033,345.650746 L275.479612,333.092854 L289.15989,332.527183 L289.15989,327.775548 L275.253492,328.341219 L274.23595,310.918558 L289.27295,313.520644 L289.27295,308.655875 L274.914311,305.601252 L281.92404,279.354126 L289.49907,280.711736 L289.49907,272.679211 L275.027371,269.963991 L271.974748,251.862525 L289.49907,249.712976 L289.49907,244.961341 L271.183327,247.224024 L268.243763,229.575095 L283.733003,221.995106 C285.089724,226.520473 287.237867,234.100461 289.61213,242.246121 L289.61213,225.275997 L288.029288,219.845557 L289.61213,219.053618 L289.61213,210.229153 L285.881145,212.0393 C285.089724,209.32408 284.072183,205.590653 283.054642,201.970359 C284.637484,201.404689 287.011747,200.612749 289.61213,199.707676 L289.61213,197.218725 L282.376281,199.707676 C281.132619,195.295444 280.115078,191.335748 279.662837,189.865004 L283.167702,178.438454 L289.49907,179.117259 L289.49907,176.741441 L283.846063,176.062636 L288.368469,161.468329 L289.49907,161.920866 L289.49907,156.829829 L284.298303,154.906548 L289.49907,142.46179 L289.49907,138.049558 L279.549777,134.202996 L285.768085,116.327798 C287.011747,117.119737 288.255408,117.798542 289.49907,118.477347 L289.49907,112.933773 C284.976664,110.331688 280.567319,107.3902 276.610214,104.222443 L289.49907,102.072894 L289.49907,97.321259 L285.881145,97.8869299 L278.758356,86.0078428 L289.38601,79.6723297 L289.38601,76.9571098 L264.399718,91.6645509 C264.173598,91.3251484 263.947477,90.9857459 263.721357,90.6463435 C260.668733,85.8947086 258.40753,79.7854639 256.711628,72.7711458 L289.38601,75.1469632 L289.38601,72.7711458 L256.146327,70.3953284 C255.581027,67.7932426 255.128786,65.0780227 254.676545,62.3628028 L289.38601,59.7607171 L289.38601,55.0090823 L277.627755,55.9141556 L281.132619,27.4043466 L289.38601,27.1780783 L289.38601,22.4264435 L281.69792,22.6527118 L282.489341,16.0909304 L289.38601,9.0766123 L289.38601,5.68258743 L282.941582,12.2443689 L285.881145,-11.7400736 L289.38601,-11.2875369 L289.38601,-13.6633544 L286.107266,-14.115891 L287.237867,-23.6191607 L289.38601,-23.2797582 L289.38601,-31.3122837 L287.463987,-31.538552 L227.994351,-31.538552 L224.263367,-11.0612686 L207.417405,-7.55410958 L202.442759,-31.538552 L200.068496,-31.538552 L201.538278,-24.2979656 L184.013955,-22.0352824 L185.822918,-31.538552 L177.682587,-31.538552 L175.760565,-21.1302091 L121.943936,-29.0496005 L122.396177,-31.538552 L117.53459,-31.538552 L117.19541,-29.7284054 L105.097974,-31.538552 L72.649713,-31.538552 L116.403989,-25.0899048 L112.220764,-2.80247476 L53.3164283,-8.68545121 L57.3865935,-31.538552 L49.3593232,-31.538552 L45.6283385,-10.608732 L18.9461444,-31.538552 L11.2580546,-31.538552 L37.7141284,-10.7218661 L-1.96998232,-16.3785743 L1.19570172,-31.538552 L-3.66588449,-31.538552 C-4.90954608,-25.4293073 -6.04014752,-20.3382699 -6.60544824,-17.0573792 L-23.4514098,-19.4331966 L-21.4163272,-31.4254179 L-26.1648532,-31.4254179 L-26.3909735,-29.9546738 L-27.9738155,-31.4254179 L-31.47868,-31.4254179 L-26.8432141,-27.2394539 L-28.0868757,-20.1120016 L-49.455243,-23.166624 L-44.2544763,-31.4254179 L-47.0809799,-31.4254179 L-52.0556263,-23.5060265 L-68.1101668,-25.7687097 L-67.9971067,-31.3122837 L-70.3713697,-31.3122837 L-70.4844298,-26.1081122 L-77.2680385,-27.1263197 L-77.3810986,-31.4254179 L-82.1296247,-31.4254179 L-82.0165646,-27.8051247 L-105.193894,-31.0860154 L-105.193894,-23.0534898 L-82.4688051,-19.7725991 L-83.7124667,-10.7218661 L-105.306954,-13.437086 L-105.306954,-11.0612686 L-90.4960754,-9.25112202 L-105.306954,5.79572159 L-105.306954,9.18974647 L-87.5565116,-8.91171953 L-84.0516472,-8.45918288 L-88.1218124,22.2001752 L-105.306954,22.6527118 L-105.306954,27.4043466 L-88.8001732,26.95181 L-92.4180979,54.2171431 L-105.306954,55.1222164 L-105.306954,59.8738513 L-98.6364058,59.4213146 L-96.2621428,73.5630849 L-105.306954,72.8842799 L-105.306954,75.2600974 L-102.593511,75.4863657 L-105.306954,77.070244 L-105.306954,79.7854639 L-98.4102855,75.712634 L-95.8099022,75.9389023 L-92.531158,95.2848441 L-105.306954,97.4343932 L-105.306954,102.186028 L-65.2836632,95.5111124 L-67.8840465,129.225093 C-79.190061,125.491666 -93.0964587,120.061226 -105.420014,112.933773 L-105.420014,118.477347 C-100.219248,121.418836 -94.7923609,124.020921 -89.365474,126.283605 L-95.3576616,142.009253 L-105.420014,138.049558 L-105.420014,142.46179 L-104.741654,140.877912 L-84.6169479,148.797303 L-88.0087522,163.278476 L-105.420014,156.942963 L-105.420014,162.034 L-72.4064523,174.026221 L-71.5019711,180.588003 L-105.306954,176.854575 L-105.306954,179.230393 L-91.739737,180.701137 L-88.8001732,191.448882 L-105.306954,197.218725 L-105.306954,199.707676 C-99.0886464,197.444993 -91.1744363,194.729773 -88.2348725,193.711565 L-86.1997899,200.952152 L-105.306954,210.342287 L-105.306954,219.166752 L-97.0535638,215.093922 L-87.3303914,246.545219 L-99.6539471,244.735073 L-105.306954,225.275997 L-105.306954,242.246121 C-105.080834,243.151194 -104.854714,243.943134 -104.515533,244.848207 L-105.306954,244.961341 L-105.306954,249.712976 L-103.158812,249.486708 C-100.332308,259.103111 -97.6188645,268.719515 -95.9229623,274.376223 L-105.306954,272.679211 L-105.306954,280.711736 L-94.0009399,282.861286 L-94.0009399,282.861286 Z M-73.5370537,278.562187 L-70.1452494,253.785806 L-52.620927,256.274757 L-56.9172125,281.61681 L-73.5370537,278.562187 L-73.5370537,278.562187 Z M-42.6716343,225.615399 L-33.061522,227.312412 L-38.0361684,253.559537 L-47.1940401,252.201927 L-42.6716343,225.615399 L-42.6716343,225.615399 Z M-51.9425662,251.636257 L-59.4045357,250.618049 L-56.9172125,233.195388 L-49.1160625,234.892401 L-51.9425662,251.636257 L-51.9425662,251.636257 Z M-42.5585742,163.731012 L-42.2193937,152.078194 L-32.1570409,153.88834 L-36.9055669,163.731012 C-37.8100481,163.617878 -38.7145293,163.504744 -39.7320706,163.504744 C-40.6365517,163.504744 -41.654093,163.617878 -42.5585742,163.731012 L-42.5585742,163.731012 Z M-50.5858444,167.351306 C-51.3772654,168.030111 -52.0556263,168.708916 -52.7339872,169.387721 L-64.379182,160.450122 L-50.1336038,152.078194 L-50.5858444,167.351306 L-50.5858444,167.351306 Z M-29.6697177,166.785635 L-18.8159438,144.271936 L-9.88419243,168.708916 L-24.5820112,172.442343 C-25.8256728,170.17966 -27.521575,168.256379 -29.6697177,166.785635 L-29.6697177,166.785635 Z M-4.57036564,10.7736247 L1.87406259,13.715113 L10.4666336,49.6917766 L-7.39686926,44.6007393 L-4.57036564,10.7736247 L-4.57036564,10.7736247 Z M-12.1453953,43.4693977 L-24.4689511,41.0935803 L-22.2077482,32.2691156 L-11.2409142,32.9479206 L-12.1453953,43.4693977 L-12.1453953,43.4693977 Z M248.910478,-6.64903628 C248.345177,1.38348926 247.779877,10.6604906 247.666817,20.2768944 L245.292553,20.1637602 L236.586922,-7.89351207 L248.910478,-6.64903628 L248.910478,-6.64903628 Z M254.450425,-16.3785743 L269.374364,-13.6633544 L266.09562,12.1312347 C263.269116,11.9049664 256.259388,11.1130272 252.528403,10.7736247 C253.093703,0.365281793 253.885124,-9.02485369 254.450425,-16.3785743 L254.450425,-16.3785743 Z M222.906645,44.7138735 L195.65915,47.7684959 C194.867729,40.7541778 192.380406,19.5980894 191.588985,12.1312347 L220.193201,15.4121254 L222.906645,44.7138735 L222.906645,44.7138735 Z M242.80523,20.0506261 L225.280908,19.2586869 L224.715607,13.2625763 L225.733149,7.71900235 L238.508945,6.13512408 L242.80523,20.0506261 L242.80523,20.0506261 Z M193.284887,48.1078984 L183.448655,49.23924 L178.700128,10.6604906 L189.101662,11.9049664 L193.284887,48.1078984 L193.284887,48.1078984 Z M195.20691,210.455422 L179.83073,206.043189 L172.934061,188.054857 C180.28297,185.452772 187.51882,183.303223 191.815105,182.171881 L195.20691,210.455422 L195.20691,210.455422 Z M210.130849,185.67904 L211.826751,199.481408 L201.990518,201.065286 L200.294616,186.810382 L210.130849,185.67904 L210.130849,185.67904 Z M109.73344,254.351477 L113.690545,237.607621 L139.694379,245.979549 L136.980935,260.347587 C132.232409,259.216246 120.587214,256.727294 109.73344,254.351477 L109.73344,254.351477 Z M136.528695,262.61027 L133.24995,280.2592 L111.768523,257.179831 L136.528695,262.61027 L136.528695,262.61027 Z M131.214868,105.24065 L133.815251,132.505984 L121.943936,135.447472 L121.039455,102.751699 L131.214868,105.24065 L131.214868,105.24065 Z M151.791814,105.24065 L143.086183,130.2433 L138.450717,131.374642 L136.189514,107.277065 L151.791814,105.24065 L151.791814,105.24065 Z M113.690545,229.348827 L99.7841476,224.82346 L107.472237,205.364384 L120.474154,210.568556 L113.690545,229.348827 L113.690545,229.348827 Z M122.622297,211.473629 L133.928311,215.998995 C130.084266,222.673911 126.692462,229.122558 124.8835,232.96912 L115.951748,230.140766 L122.622297,211.473629 L122.622297,211.473629 Z M103.515132,198.802603 L111.316282,189.638736 L126.918582,200.612749 L122.735357,206.382592 L103.515132,198.802603 L103.515132,198.802603 Z M101.140869,197.897529 L100.010268,197.444993 L98.0882455,174.478758 L113.464425,162.939073 L121.152515,174.365624 L101.140869,197.897529 L101.140869,197.897529 Z M97.1837643,172.10294 L85.99081,152.643864 L103.628193,148.231632 L112.107703,160.902658 C109.2812,163.052207 100.236388,169.727123 97.1837643,172.10294 L97.1837643,172.10294 Z M115.273387,161.468329 C116.517049,160.450122 118.891312,158.639975 120.587214,157.282365 L127.483883,166.898769 L122.735357,172.555477 L115.273387,161.468329 L115.273387,161.468329 Z M114.029726,159.431914 L106.115516,147.552827 L112.559944,145.968949 L119.230492,155.359084 L114.029726,159.431914 L114.029726,159.431914 Z M77.6243593,146.647754 L83.8426673,125.831068 L98.2013056,141.556717 L77.6243593,146.647754 L77.6243593,146.647754 Z M84.5210281,123.115848 L92.5482984,96.1899174 L118.552132,102.299162 L119.569673,136.126277 L100.801689,140.877912 L84.5210281,123.115848 L84.5210281,123.115848 Z M134.832792,93.8141 L166.150452,90.0806726 L167.733294,100.60215 L135.963394,104.788114 L134.832792,93.8141 L134.832792,93.8141 Z M130.084266,93.5878317 L130.988748,102.638565 L112.220764,98.2263323 L115.047267,89.2887335 L130.084266,93.5878317 L130.084266,93.5878317 Z M109.8465,97.7737957 L93.2266593,93.9272342 L96.166223,83.9714279 L112.786064,88.7230627 L109.8465,97.7737957 L109.8465,97.7737957 Z M87.9128325,95.17171 L52.9772479,82.3875496 L56.9343529,72.8842799 L91.5307571,82.7269521 L87.9128325,95.17171 L87.9128325,95.17171 Z M87.2344716,97.4343932 L83.616547,109.766017 L67.7881268,104.448711 C68.9187282,100.941552 70.9538108,94.3797708 71.7452318,91.6645509 L87.2344716,97.4343932 L87.2344716,97.4343932 Z M64.057142,108.295273 C63.265721,110.67109 61.7959391,114.857054 59.9869768,119.834957 L42.123474,112.0287 L43.3671356,101.394089 L64.057142,108.295273 L64.057142,108.295273 Z M66.3183449,108.974078 L82.2598253,114.291383 L76.8329383,132.619118 L59.5347362,128.206885 L66.3183449,108.974078 L66.3183449,108.974078 Z M76.1545775,134.881801 L72.3105326,148.005364 L50.8291051,153.435804 L58.8563754,130.469569 L76.1545775,134.881801 L76.1545775,134.881801 Z M83.616547,153.322669 L89.3826144,163.39161 L71.7452318,168.369513 L75.023976,155.472219 L83.616547,153.322669 L83.616547,153.322669 Z M90.6262759,165.541159 L95.6009223,174.25249 L97.5229448,196.426785 L67.6750666,184.547698 L71.066871,171.084733 L90.6262759,165.541159 L90.6262759,165.541159 Z M80.9031035,194.842907 L77.3982391,205.477518 L63.265721,201.630957 L66.431405,189.073065 L80.9031035,194.842907 L80.9031035,194.842907 Z M83.1643064,195.74798 L105.211035,204.572445 L97.4098846,224.144655 L75.9284572,217.243471 L83.1643064,195.74798 L83.1643064,195.74798 Z M74.232555,225.049728 L70.7276905,244.848207 L43.0279552,228.217485 L52.298887,217.922276 L74.232555,225.049728 L74.232555,225.049728 Z M81.8075847,227.425546 L111.429343,236.928816 L107.472237,253.89894 C99.6710875,252.201927 92.6613585,250.618049 89.2695542,249.939244 L80.450863,235.118669 L81.8075847,227.425546 L81.8075847,227.425546 Z M105.663275,255.935355 L97.0707042,262.949673 L90.9654564,252.654464 L105.663275,255.935355 L105.663275,255.935355 Z M129.405905,234.439864 C133.363011,226.520473 142.860063,208.645275 149.869792,200.386481 C150.208972,200.047079 150.548152,199.594542 151.000393,199.255139 L167.281054,218.261679 L145.686566,239.644035 L129.405905,234.439864 L129.405905,234.439864 Z M162.758648,205.703787 L174.629963,199.481408 L177.456467,206.835128 L170.559798,214.867654 L162.758648,205.703787 L162.758648,205.703787 Z M161.175806,203.780506 L154.844438,196.313651 C159.027663,193.598431 164.793731,190.996346 170.672858,188.846796 L173.838542,197.218725 L161.175806,203.780506 L161.175806,203.780506 Z M146.364927,197.331859 C143.199243,200.952152 139.694379,206.382592 136.415634,211.926166 L124.99656,207.400799 L140.93804,185.452772 L148.28695,195.634846 C147.495529,196.087383 146.817168,196.766188 146.364927,197.331859 L146.364927,197.331859 Z M128.275304,198.689469 L112.786064,187.828589 L128.953665,168.82205 L139.355198,183.303223 L128.275304,198.689469 L128.275304,198.689469 Z M135.398093,169.840257 L149.417551,165.541159 L154.392197,176.062636 L142.973123,180.474868 L135.398093,169.840257 L135.398093,169.840257 Z M151.791814,164.862354 L162.984768,161.468329 L173.047121,168.935184 L156.6534,175.270697 L151.791814,164.862354 L151.791814,164.862354 Z M132.458529,165.767427 L117.30847,144.837607 L147.382468,137.257618 L151.791814,159.997585 L132.458529,165.767427 L132.458529,165.767427 Z M149.756731,136.578813 L185.144557,127.641215 L187.74494,149.023571 L154.166077,159.205646 L149.756731,136.578813 L149.756731,136.578813 Z M145.799626,129.451361 L154.392197,104.788114 L168.072475,102.977967 L171.012039,123.002714 L145.799626,129.451361 L145.799626,129.451361 Z M168.411655,89.8544043 L180.28297,88.4967944 L184.127015,119.834957 L173.273242,122.550177 L168.411655,89.8544043 L168.411655,89.8544043 Z M188.08412,87.1391844 L198.259533,84.763367 L196.676691,118.137945 L191.928165,119.382421 L188.08412,87.1391844 L188.08412,87.1391844 Z M137.546236,88.7230627 L163.323949,66.2093644 L177.456467,65.3042911 L179.71767,83.7451595 L137.546236,88.7230627 L137.546236,88.7230627 Z M185.370677,64.5123519 L195.54609,62.9284736 C196.563631,69.2639867 197.581173,76.391439 198.146473,80.0117322 L187.51882,82.5006838 L185.370677,64.5123519 L185.370677,64.5123519 Z M177.230347,63.0416078 L164.00231,63.9466811 L162.984768,53.9908748 L176.212805,54.3302773 L177.230347,63.0416078 L177.230347,63.0416078 Z M161.628047,64.6254861 L134.380552,88.3836602 L131.101808,53.0858015 L160.723565,53.8777406 C160.836626,57.0454972 161.401926,62.8153395 161.628047,64.6254861 L161.628047,64.6254861 Z M129.632026,88.6099285 L61.1175783,69.1508526 L66.431405,59.5344488 L128.840605,79.898598 L129.632026,88.6099285 L129.632026,88.6099285 Z M52.4119471,71.52667 L42.2365341,95.9636491 L34.0962037,93.2484292 L44.9499776,69.4902551 L52.4119471,71.52667 L52.4119471,71.52667 Z M52.0727667,84.5370987 L69.4840289,90.8726118 L65.5269239,103.656772 L46.7589399,97.321259 L52.0727667,84.5370987 L52.0727667,84.5370987 Z M41.1059327,100.60215 L39.8622711,111.349895 L23.9207907,108.860944 L31.7219407,97.4343932 L41.1059327,100.60215 L41.1059327,100.60215 Z M40.540632,113.838847 L59.1955558,121.984506 C56.9343529,128.433154 54.3339696,135.786874 52.0727667,142.235522 L15.5543401,135.108069 L12.0494756,126.057336 L22.3379487,111.123627 L40.540632,113.838847 L40.540632,113.838847 Z M16.2327009,149.928645 L1.87406259,153.88834 L-5.13566637,137.03135 L8.43155096,129.338227 L16.2327009,149.928645 L16.2327009,149.928645 Z M16.6849415,137.710155 L51.3944058,144.498205 C50.0376841,148.344766 48.9070827,151.738791 48.0026015,154.114609 L25.1644523,159.884451 L16.6849415,137.710155 L16.6849415,137.710155 Z M69.9362695,156.716694 L63.265721,183.076954 L54.3339696,176.288904 L50.1507442,161.694597 L69.9362695,156.716694 L69.9362695,156.716694 Z M62.4743,185.67904 L56.1429319,210.568556 L42.0104139,182.850686 L52.8641877,178.438454 L62.4743,185.67904 L62.4743,185.67904 Z M62.7004203,204.006774 L76.606818,207.740202 L73.6672543,216.564666 L60.5522775,212.378702 L62.7004203,204.006774 L62.7004203,204.006774 Z M49.8115638,217.130337 L29.6868581,239.417767 L26.5211741,237.720755 C28.6693168,226.407338 30.5913393,216.564666 31.6088806,211.247361 L49.8115638,217.130337 L49.8115638,217.130337 Z M41.332053,230.027632 L70.27545,247.337158 L68.1273072,259.32938 L31.8350009,240.435975 L41.332053,230.027632 L41.332053,230.027632 Z M67.6750666,261.818331 L66.9967058,265.664893 L22.564069,258.198038 C23.6946705,252.201927 24.938332,245.979549 26.0689335,240.209706 L67.6750666,261.818331 L67.6750666,261.818331 Z M37.7141284,263.175941 L33.0786624,282.635017 L18.2677835,280.2592 C19.398385,274.376223 20.7551067,267.588174 22.1118284,260.460721 L37.7141284,263.175941 L37.7141284,263.175941 Z M16.1196408,266.117429 L13.6323176,279.354126 L-10.7886736,273.47115 L-8.64053084,262.61027 L16.1196408,266.117429 L16.1196408,266.117429 Z M13.180077,281.729944 L10.805814,294.061568 L-14.0674178,289.536201 L-11.3539743,275.846967 L13.180077,281.729944 L13.180077,281.729944 Z M17.8155429,282.635017 L32.739482,285.010835 L31.7219407,297.908129 L15.4412799,294.966641 C16.0065806,292.025153 16.7980016,287.726055 17.8155429,282.635017 L17.8155429,282.635017 Z M35.113745,285.350237 L45.0630378,286.934115 L43.2540754,300.057678 L34.0962037,298.360666 L35.113745,285.350237 L35.113745,285.350237 Z M47.3242406,287.273518 L62.5873601,289.649335 L60.2130971,303.112301 L45.5152783,300.397081 L47.3242406,287.273518 L47.3242406,287.273518 Z M35.4529255,282.97442 L40.0883914,263.515344 L66.5444652,267.927576 L63.0396007,287.273518 L35.4529255,282.97442 L35.4529255,282.97442 Z M79.2072014,242.246121 L93.3397194,266.004295 L71.858292,283.653225 L79.2072014,242.246121 L79.2072014,242.246121 Z M94.583381,268.04071 L112.899124,298.926337 L104.532674,305.827521 L86.2169303,274.941894 L94.583381,268.04071 L94.583381,268.04071 Z M98.2013056,264.986088 L108.150598,256.840428 L132.458529,282.861286 L116.630109,295.871714 L98.2013056,264.986088 L98.2013056,264.986088 Z M149.869792,283.879493 L152.357115,265.32549 C155.861979,265.891161 159.140723,266.456832 160.836626,266.6831 L157.105641,285.010835 L149.869792,283.879493 L149.869792,283.879493 Z M147.495529,283.54009 L137.772356,281.956212 L141.277221,263.515344 C143.425363,263.854746 146.704108,264.420417 149.982852,264.986088 L147.495529,283.54009 L147.495529,283.54009 Z M141.616401,261.25266 L144.216784,247.450293 L163.437009,253.559537 L161.288866,264.307283 L141.616401,261.25266 L141.616401,261.25266 Z M150.887333,241.227914 L170.446738,221.881972 L183.448655,237.04195 L177.004226,249.599842 L150.887333,241.227914 L150.887333,241.227914 Z M172.2557,216.6778 L179.378489,208.419007 L195.54609,213.057507 L199.050954,241.341048 C197.581173,241.68045 196.224451,242.359255 194.867729,243.03806 L172.2557,216.6778 L172.2557,216.6778 Z M202.555819,205.816921 L226.63763,202.083494 L229.124953,218.148545 L204.590902,221.995106 L202.555819,205.816921 L202.555819,205.816921 Z M151.904874,192.693358 L144.555965,182.511283 L175.308324,170.632196 L186.388218,178.777856 C176.778106,181.493076 161.288866,186.470979 151.904874,192.693358 L151.904874,192.693358 Z M165.811272,160.67639 L188.310241,153.88834 L191.136744,177.420246 C190.571444,177.53338 189.893083,177.759649 189.214722,177.872783 L165.811272,160.67639 L165.811272,160.67639 Z M196.676691,156.942963 L195.77221,149.362974 L216.575277,136.352545 L219.740961,156.942963 L196.676691,156.942963 L196.676691,156.942963 Z M195.43303,146.647754 L193.058767,126.849275 L214.540194,134.655533 L195.43303,146.647754 L195.43303,146.647754 Z M196.450571,123.115848 L237.265283,112.481237 L229.351073,135.108069 L196.450571,123.115848 L196.450571,123.115848 Z M199.164015,117.572274 L200.068496,99.2445398 L227.655171,94.3797708 L229.124953,109.879151 L199.164015,117.572274 L199.164015,117.572274 Z M200.181556,96.7555882 L200.746857,84.1976962 L226.185389,78.3147197 L227.542111,92.0039534 L200.181556,96.7555882 L200.181556,96.7555882 Z M200.407676,79.3329272 L197.807293,62.475937 L207.982706,60.8920587 L210.130849,77.1833781 L200.407676,79.3329272 L200.407676,79.3329272 Z M185.031497,62.1365345 L184.013955,53.8777406 L193.963248,52.746399 C194.302428,54.5565456 194.641609,57.3848997 195.20691,60.4395221 L185.031497,62.1365345 L185.031497,62.1365345 Z M126.240221,52.9726673 L128.501424,77.2965123 L90.6262759,64.9648886 L95.8270426,52.2938624 L126.240221,52.9726673 L126.240221,52.9726673 Z M88.3650731,64.1729494 L67.2228261,57.2717655 L68.1273072,51.5019232 L93.2266593,52.1807282 L88.3650731,64.1729494 L88.3650731,64.1729494 Z M64.9616232,56.4798264 L47.8895414,50.9362524 L65.8661043,51.3887891 C65.5269239,53.0858015 65.1877435,55.1222164 64.9616232,56.4798264 L64.9616232,56.4798264 Z M64.1702022,58.7425096 L58.7433152,68.3589134 L22.6771292,58.0637047 L26.4081139,50.2574474 L39.5230907,50.5968499 L64.1702022,58.7425096 L64.1702022,58.7425096 Z M42.6887747,68.8114501 L31.8350009,92.5696242 L9.67521255,85.2159037 L20.5289864,62.5890712 L42.6887747,68.8114501 L42.6887747,68.8114501 Z M29.4607378,96.6424541 L11.1449944,123.342116 L2.32630316,100.375881 L7.64012995,89.4018677 L29.4607378,96.6424541 L29.4607378,96.6424541 Z M-6.04014752,99.6970765 L-16.2155605,120.740031 L-26.3909735,115.196457 L-22.3208083,96.5293199 L-6.04014752,99.6970765 L-6.04014752,99.6970765 Z M-0.500200446,106.258858 L7.52706981,127.188678 L-6.04014752,134.994935 L-9.88419243,125.831068 L-0.500200446,106.258858 L-0.500200446,106.258858 Z M-0.387140302,154.567145 L-11.3539743,157.621768 L-17.346162,141.330448 L-11.2409142,128.546288 L-0.387140302,154.567145 L-0.387140302,154.567145 Z M17.1371821,152.191328 L20.5289864,161.128927 L-7.5099294,168.256379 L-10.5625533,159.884451 L17.1371821,152.191328 L17.1371821,152.191328 Z M47.7764812,162.373402 L51.7335863,176.288904 L18.7200241,189.638736 L12.9539567,171.084733 L47.7764812,162.373402 L47.7764812,162.373402 Z M39.8622711,183.642625 L53.2033681,210.002885 L9.44909226,195.974249 L39.8622711,183.642625 L39.8622711,183.642625 Z M26.9734146,209.889751 L22.6771292,232.403449 L-1.63080189,228.104351 L3.56996475,202.422896 L26.9734146,209.889751 L26.9734146,209.889751 Z M-7.28380911,231.837778 L-12.3715156,257.179831 L-26.1648532,255.25655 L-13.5021171,230.706437 L-7.28380911,231.837778 L-7.28380911,231.837778 Z M-2.64834319,232.742852 L21.6595879,237.04195 L16.9110618,261.478929 L-7.84910983,257.97177 L-2.64834319,232.742852 L-2.64834319,232.742852 Z M-13.3890569,261.931465 L-18.8159438,288.631128 L-33.1745822,286.029042 L-27.9738155,259.895051 L-13.3890569,261.931465 L-13.3890569,261.931465 Z M-45.7242582,291.68575 L-47.1940401,303.112301 L-65.3967233,299.605142 L-64.0400016,288.291725 L-45.7242582,291.68575 L-45.7242582,291.68575 Z M-43.4630553,292.138287 L-14.8588388,297.342458 L-16.8939214,308.995277 L-44.9328372,303.564837 L-43.4630553,292.138287 L-43.4630553,292.138287 Z M-10.2233729,298.247532 L9.22297197,301.867825 C8.43155096,305.601252 7.18788937,311.710497 5.7181075,318.837949 L-12.9368163,314.651985 L-10.2233729,298.247532 L-10.2233729,298.247532 Z M13.8584379,302.659764 L37.8271885,307.071996 L33.8700835,335.355537 L7.7531901,331.62211 L13.8584379,302.659764 L13.8584379,302.659764 Z M67.6750666,306.166923 L71.066871,287.160384 L84.2949079,276.412638 L102.610651,307.411399 L96.957644,312.049899 L67.6750666,306.166923 L67.6750666,306.166923 Z M94.8095013,316.235863 L90.0609752,335.921208 C84.5210281,334.789866 70.27545,331.961512 63.3787811,330.603902 L66.8836456,310.805424 L94.8095013,316.235863 L94.8095013,316.235863 Z M103.062892,313.068107 L131.440988,289.762469 L126.240221,317.593473 L103.062892,313.068107 L103.062892,313.068107 Z M136.867875,286.594713 L165.924332,291.233214 L161.175806,324.381523 L130.875687,318.498547 L136.867875,286.594713 L136.867875,286.594713 Z M168.863896,304.356776 L188.310241,307.071996 L184.240076,328.90689 L165.811272,325.286596 L168.863896,304.356776 L168.863896,304.356776 Z M196.563631,305.940655 L198.259533,297.003056 L214.427134,299.83141 L213.522653,308.882143 L196.563631,305.940655 L196.563631,305.940655 Z M188.762481,304.809313 C183.335594,304.017374 173.612422,302.659764 169.203076,302.094093 L170.672858,292.025153 L190.571444,295.192909 L188.762481,304.809313 L188.762481,304.809313 Z M199.164015,292.364555 L202.329699,275.281297 L203.34724,275.281297 C205.834563,275.281297 208.095766,274.715626 210.243909,273.810553 L219.967081,289.875604 L210.470029,294.287836 L199.164015,292.364555 L199.164015,292.364555 Z M191.475925,290.554409 L159.479904,285.463371 L165.698212,254.351477 L186.388218,261.026392 C187.292699,266.117429 190.458383,270.529662 194.754669,273.018613 L191.475925,290.554409 L191.475925,290.554409 Z M193.963248,257.97177 C193.963248,252.767598 198.146473,248.581634 203.34724,248.581634 C208.548007,248.581634 212.731232,252.767598 212.731232,257.97177 C212.731232,263.175941 208.548007,267.361905 203.34724,267.361905 C198.259533,267.361905 193.963248,263.175941 193.963248,257.97177 L193.963248,257.97177 Z M186.953519,252.880732 L179.378489,250.504915 L185.144557,239.078365 L191.023684,245.979549 C189.214722,247.789695 187.74494,250.165513 186.953519,252.880732 L186.953519,252.880732 Z M206.965165,241.11478 L204.930082,224.257789 L229.577193,220.411228 L232.403697,238.39956 L216.236096,246.318951 C213.748773,243.716865 210.470029,241.793585 206.965165,241.11478 L206.965165,241.11478 Z M230.820855,198.123798 L240.204847,196.879322 L246.649275,231.272107 L236.586922,236.136876 L230.820855,198.123798 L230.820855,198.123798 Z M225.959269,197.331859 L214.201014,199.142005 L212.505112,185.452772 L223.924186,184.095162 L225.959269,197.331859 L225.959269,197.331859 Z M199.955436,184.547698 L196.902812,159.31878 L219.967081,159.31878 L223.471946,181.832478 L199.955436,184.547698 L199.955436,184.547698 Z M224.941728,160.110719 L253.885124,168.143245 L250.15414,178.099051 L226.86375,172.329209 L224.941728,160.110719 L224.941728,160.110719 Z M224.489487,157.508633 L221.323803,137.257618 L260.216493,151.399389 L254.676545,165.880562 L224.489487,157.508633 L224.489487,157.508633 Z M231.612276,135.900008 L235.682441,124.24719 L250.38026,128.32002 L245.179493,140.764777 L231.612276,135.900008 L231.612276,135.900008 Z M236.473862,122.097641 L240.091787,111.802432 L259.312011,106.824529 L251.284741,126.283605 L236.473862,122.097641 L236.473862,122.097641 Z M233.760419,108.521541 L230.707795,76.1651707 L241.222388,74.6944265 L247.214576,105.127516 L233.760419,108.521541 L233.760419,108.521541 Z M212.505112,76.5045731 L210.356969,60.4395221 L224.263367,58.1768388 L225.733149,73.4499508 L212.505112,76.5045731 L212.505112,76.5045731 Z M207.643525,58.5162413 L197.468112,60.1001196 L196.337511,52.5201307 L206.739044,51.3887891 L207.643525,58.5162413 L207.643525,58.5162413 Z M209.113307,51.0493866 L223.471946,49.4655083 L224.037246,55.9141556 L210.017788,58.1768388 L209.113307,51.0493866 L209.113307,51.0493866 Z M175.534444,49.4655083 L162.532528,49.1261058 C162.193347,45.3926785 161.514986,37.8126896 161.288866,34.7580672 L173.838542,35.2106038 L175.534444,49.4655083 L175.534444,49.4655083 Z M98.2013056,29.8932982 L87.573652,29.4407616 C87.6867122,26.7255417 87.9128325,20.3900286 88.0258926,17.6748087 L99.1057868,18.1273453 L98.2013056,29.8932982 L98.2013056,29.8932982 Z M103.741253,19.1455528 L122.622297,30.9115057 L102.949832,30.1195665 L103.741253,19.1455528 L103.741253,19.1455528 Z M85.199389,29.4407616 L72.5366528,28.9882249 C73.3280739,25.1416634 74.1194949,21.0688335 74.7978557,17.222272 L85.5385694,17.6748087 L85.199389,29.4407616 L85.199389,29.4407616 Z M70.1623898,28.7619566 L54.3339696,26.8386758 L57.4996536,14.5070521 L72.4235927,16.9960037 L70.1623898,28.7619566 L70.1623898,28.7619566 Z M45.289158,28.0831516 L43.5932559,34.9843355 L34.2092639,34.3055305 L37.6010682,27.1780783 L45.289158,28.0831516 L45.289158,28.0831516 Z M47.6634211,28.3094199 L69.7101492,31.0246398 L68.5795478,36.7944821 L46.0805791,35.0974697 L47.6634211,28.3094199 L47.6634211,28.3094199 Z M68.1273072,39.1702995 L66.6575253,46.6371542 L28.782377,45.6189468 L33.1917226,36.4550796 L68.1273072,39.1702995 L68.1273072,39.1702995 Z M72.0844123,31.2509082 L85.0863289,31.816579 C84.8602086,34.8712014 84.407968,43.1299952 84.1818477,47.2028251 L69.0317884,46.8634226 C69.5970891,43.5825319 70.7276905,37.8126896 72.0844123,31.2509082 L72.0844123,31.2509082 Z M87.4605919,31.816579 L98.0882455,32.2691156 L96.957644,47.4290934 L86.5561107,47.2028251 L87.4605919,31.816579 L87.4605919,31.816579 Z M102.836772,32.4953839 L126.014101,33.4004572 L127.031642,48.2210325 L101.70617,47.5422275 L102.836772,32.4953839 L102.836772,32.4953839 Z M128.388364,33.4004572 L137.659296,33.7398597 L137.207055,48.4473008 L129.405905,48.2210325 L128.388364,33.4004572 L128.388364,33.4004572 Z M142.407822,33.9661281 L158.914603,34.644933 L160.158265,49.1261058 L142.068642,48.6735692 L142.407822,33.9661281 L142.407822,33.9661281 Z M170.898978,11.3392956 L173.499362,32.8347864 L161.062746,32.3822498 L161.288866,10.4342223 L170.898978,11.3392956 L170.898978,11.3392956 Z M158.801543,32.2691156 L142.520882,31.5903106 L143.199243,8.51094149 L159.027663,10.0948198 L158.801543,32.2691156 L158.801543,32.2691156 Z M137.772356,31.4771765 L127.483883,31.0246398 L115.273387,23.4446509 L135.171973,7.71900235 L138.450717,8.05840484 L137.772356,31.4771765 L137.772356,31.4771765 Z M113.125245,22.2001752 L103.967373,16.543467 L104.758794,4.77751413 L131.780169,7.49273403 L113.125245,22.2001752 L113.125245,22.2001752 Z M99.2188469,15.8646621 L75.2500963,14.7333204 C76.2676376,9.52914895 77.1721188,5.00378245 77.7374195,1.94916007 L100.010268,4.21184332 L99.2188469,15.8646621 L99.2188469,15.8646621 Z M144.216784,0.70468428 L145.573506,-8.79858537 L172.707941,-4.04695054 L171.351219,3.41990418 L144.216784,0.70468428 L144.216784,0.70468428 Z M75.4762166,1.72289174 L72.9888934,14.5070521 L45.9675189,9.9816856 L51.1682855,-0.766059832 L75.4762166,1.72289174 L75.4762166,1.72289174 Z M55.1253906,14.0545155 L51.8466464,26.4992733 L38.6186095,24.9153951 L44.7238573,12.357503 L55.1253906,14.0545155 L55.1253906,14.0545155 Z M29.4607378,26.0467367 L17.1371821,51.6150574 L13.0670169,50.4837158 L4.58750605,14.9595888 L29.4607378,26.0467367 L29.4607378,26.0467367 Z M16.0065806,53.7646065 L10.014393,66.3224985 L-8.86665113,60.7789246 L-7.73604969,46.9765567 L16.0065806,53.7646065 L16.0065806,53.7646065 Z M7.97931038,70.6215967 L2.77854374,81.3693421 L-30.2350184,73.4499508 L-28.7652365,59.7607171 L7.97931038,70.6215967 L7.97931038,70.6215967 Z M-34.4182438,89.4018677 L-40.5234916,88.270526 L-39.6190104,56.8192289 L-31.2525597,59.3081804 L-34.4182438,89.4018677 L-34.4182438,89.4018677 Z M-30.5741989,75.8257682 L1.6479423,83.5188912 L-4.00506492,95.17171 L-32.0439807,89.7412702 L-30.5741989,75.8257682 L-30.5741989,75.8257682 Z M-24.6950713,96.0767833 L-31.9309206,129.67763 L-41.5410329,128.433154 L-40.5234916,93.0221609 L-24.6950713,96.0767833 L-24.6950713,96.0767833 Z M-26.9562742,117.685408 L-17.2331018,122.88958 L-22.886109,134.542399 L-29.6697177,130.356434 L-26.9562742,117.685408 L-26.9562742,117.685408 Z M-31.47868,132.053447 L-23.9036503,136.691948 L-31.1394996,151.625657 L-42.2193937,149.702376 L-41.654093,130.808971 L-31.47868,132.053447 L-31.47868,132.053447 Z M-30.3480786,180.814271 C-30.3480786,186.018442 -34.5313039,190.204406 -39.7320706,190.204406 C-44.9328372,190.204406 -49.1160625,186.018442 -49.1160625,180.814271 C-49.1160625,175.610099 -44.9328372,171.424135 -39.7320706,171.424135 C-34.5313039,171.424135 -30.3480786,175.610099 -30.3480786,180.814271 L-30.3480786,180.814271 Z M-23.1122293,185.452772 C-22.6599888,183.982028 -22.4338685,182.398149 -22.4338685,180.701137 L-22.4338685,180.022332 L10.5796937,171.650404 L16.4588212,190.543809 L5.94422779,194.729773 L-23.1122293,185.452772 L-23.1122293,185.452772 Z M-0.952441024,200.839018 L-6.26626781,227.199278 L-8.64053084,226.746741 L-29.6697177,194.729773 C-28.7652365,194.050968 -27.8607554,193.259029 -27.0693344,192.46709 L-0.952441024,200.839018 L-0.952441024,200.839018 Z M-11.8062149,226.294204 L-41.8802133,220.976899 L-37.9231082,198.010664 C-35.6619054,197.784395 -33.5137626,197.10559 -31.5917402,196.087383 L-11.8062149,226.294204 L-11.8062149,226.294204 Z M-48.663822,232.516583 L-56.4649719,230.706437 L-53.412348,209.550348 L-45.3850778,213.623178 L-48.663822,232.516583 L-48.663822,232.516583 Z M-30.8003191,227.764948 L-16.1025004,230.367034 L-28.7652365,255.030282 L-35.7749655,254.012074 L-30.8003191,227.764948 L-30.8003191,227.764948 Z M-52.3948067,282.408749 L-48.0985212,256.953562 L-30.3480786,259.442514 L-35.4357851,285.463371 L-52.3948067,282.408749 L-52.3948067,282.408749 Z M-91.5136167,294.514104 L-89.365474,283.653225 L-66.3012045,287.839189 L-67.6579262,299.039471 L-91.5136167,294.514104 L-91.5136167,294.514104 Z M-94.4531805,310.013485 L-92.3050377,299.152605 L-56.8041524,306.053789 L-59.0653553,316.235863 L-94.4531805,310.013485 L-94.4531805,310.013485 Z M-56.8041524,316.6884 L-54.5429495,306.506325 L-17.5722823,313.746912 L-19.1551243,323.250182 L-56.8041524,316.6884 L-56.8041524,316.6884 Z M-77.8333392,346.329551 L-78.2855798,330.83017 L-68.1101668,330.377634 L-54.3168292,342.935526 C-59.7437161,343.727465 -72.4064523,345.537612 -77.8333392,346.329551 L-77.8333392,346.329551 Z M-51.2642053,342.482989 L-64.7183625,330.2645 L-20.1726656,328.454353 L-21.6424475,337.391952 L-51.2642053,342.482989 L-51.2642053,342.482989 Z M-0.726320735,349.949844 L-18.5898236,347.12149 L-13.3890569,316.914668 L5.26586692,321.100632 C3.34384446,330.038231 1.19570172,340.33344 -0.726320735,349.949844 L-0.726320735,349.949844 Z M36.3574066,335.694939 L40.3145117,307.524533 L58.9694355,310.918558 L54.1078493,338.183891 L36.3574066,335.694939 L36.3574066,335.694939 Z M60.7783978,344.971941 L62.9265406,332.979719 L75.3631565,335.468671 L72.9888934,347.234624 L60.7783978,344.971941 L60.7783978,344.971941 Z M58.6302551,356.737894 L60.3261572,347.234624 L72.5366528,349.497307 L70.7276905,358.54804 L58.6302551,356.737894 L58.6302551,356.737894 Z M84.0687876,360.471321 L73.1019536,358.887443 L77.7374195,335.921208 L89.4956745,338.297025 L84.0687876,360.471321 L84.0687876,360.471321 Z M94.6964411,336.826281 L99.4449672,317.254071 L125.4488,322.345108 L121.717816,342.030452 L94.6964411,336.826281 L94.6964411,336.826281 Z M125.22268,348.818502 L130.084266,323.137047 L152.017934,327.436146 L146.930228,352.778198 L125.22268,348.818502 L125.22268,348.818502 Z M275.253492,361.828931 L256.259388,359.113711 L256.485508,348.4791 L274.462071,347.460892 L275.253492,361.828931 L275.253492,361.828931 Z M251.736982,348.4791 L251.623922,358.54804 L214.087954,353.1176 L214.087954,344.971941 L251.736982,348.4791 L251.736982,348.4791 Z M211.713691,344.745672 L211.713691,352.778198 L188.423301,349.497307 L189.666962,342.822392 L211.713691,344.745672 L211.713691,344.745672 Z M190.119203,340.446574 L190.910624,336.034342 L251.850042,333.54539 L251.623922,346.103282 L190.119203,340.446574 L190.119203,340.446574 Z M274.23595,345.198209 L256.485508,346.216417 L256.711628,333.319122 L273.444529,332.640317 L274.23595,345.198209 L274.23595,345.198209 Z M183.335594,333.54539 L178.587068,358.661174 L149.078371,353.230735 L154.166077,327.888682 L183.335594,333.54539 L183.335594,333.54539 Z M191.815105,331.169573 L196.111391,308.316472 C201.199097,309.221545 210.130849,310.692289 213.183472,311.25796 L211.14839,330.377634 L191.815105,331.169573 L191.815105,331.169573 Z M213.522653,330.2645 L216.688337,300.283947 L229.464133,302.54663 L229.690254,329.698829 L213.522653,330.2645 L213.522653,330.2645 Z M272.087808,309.90035 L273.218409,327.775548 L255.581027,328.454353 L255.807147,306.958862 L272.087808,309.90035 L272.087808,309.90035 Z M253.319824,306.61946 L253.093703,328.567487 L232.064517,329.47256 L231.838396,302.886032 L253.319824,306.61946 L253.319824,306.61946 Z M279.549777,278.90159 L272.540048,305.148716 L256.372448,302.320361 L264.173598,276.073236 L279.549777,278.90159 L279.549777,278.90159 Z M254.111245,301.980959 L218.72342,295.75858 L261.912395,275.733833 L254.111245,301.980959 L254.111245,301.980959 Z M253.885124,274.263089 L222.115224,288.97053 L212.392051,272.792345 C214.540194,271.434735 216.349157,269.737723 217.818938,267.588174 L253.885124,274.263089 L253.885124,274.263089 Z M272.426988,269.624589 L220.419322,260.008185 C220.532382,259.442514 220.532382,258.876843 220.532382,258.311172 L269.487424,252.201927 L272.426988,269.624589 L272.426988,269.624589 Z M268.696003,247.563427 L219.967081,253.559537 C219.967081,253.446403 219.854021,253.333269 219.854021,253.220135 L265.75644,230.706437 L268.696003,247.563427 L268.696003,247.563427 Z M281.35874,214.301983 L249.023538,230.2539 L246.083975,214.528251 L278.419176,203.667372 L281.35874,214.301983 L281.35874,214.301983 Z M277.740815,201.404689 C271.070266,203.667372 250.832501,210.455422 245.518674,212.265568 L242.57911,196.653054 L275.253492,192.580224 L277.740815,201.404689 L277.740815,201.404689 Z M230.142494,193.485297 L227.315991,174.931295 L249.362719,180.361734 L245.066433,191.562016 L230.142494,193.485297 L230.142494,193.485297 Z M247.666817,191.222614 L256.146327,168.935184 L267.678462,174.139355 L262.138515,189.299333 L247.666817,191.222614 L247.666817,191.222614 Z M278.419176,177.53338 L275.253492,187.715455 L264.738898,189.073065 L269.826605,175.044429 L278.419176,177.53338 L278.419176,177.53338 Z M283.846063,160.110719 L279.097537,175.383831 L269.600485,172.555477 L257.050809,166.898769 L262.590756,152.417596 L283.846063,160.110719 L283.846063,160.110719 Z M287.916228,140.199107 L282.0371,154.340877 L273.67065,151.286255 L278.758356,136.691948 L287.916228,140.199107 L287.916228,140.199107 Z M274.23595,135.221203 L269.261304,149.702376 L247.327636,141.669851 L252.528403,129.111959 L274.23595,135.221203 L274.23595,135.221203 Z M281.58486,113.951981 L275.027371,132.845386 L253.545944,126.849275 L262.251575,106.03259 L269.035184,104.222443 C272.766169,107.842736 277.062454,111.010493 281.58486,113.951981 L281.58486,113.951981 Z M276.723274,87.4785869 L283.393822,98.5657348 L271.974748,100.489016 C269.713545,98.3394665 267.678462,96.1899174 265.98256,93.9272342 L276.723274,87.4785869 L276.723274,87.4785869 Z M259.764252,93.5878317 C261.347094,95.9636491 263.156056,98.2263323 265.078079,100.489016 L249.475779,104.561845 L243.483591,74.4681582 L251.850042,73.3368166 C253.772064,81.1430738 256.259388,88.1573919 259.764252,93.5878317 L259.764252,93.5878317 Z M251.397801,70.847865 L230.481675,73.7893532 L227.429051,42.2249219 L247.892937,40.6410436 C248.345177,51.2756549 249.475779,61.5708637 251.397801,70.847865 L251.397801,70.847865 Z M272.879229,56.5929605 L254.111245,57.9505705 C252.980643,48.560435 252.528403,38.3783604 252.415343,28.4225541 L276.384093,27.8568833 L272.879229,56.5929605 L272.879229,56.5929605 Z M247.779877,38.3783604 L227.20293,39.9622387 L225.507028,21.7476385 L247.666817,22.6527118 C247.553756,27.8568833 247.666817,33.0610548 247.779877,38.3783604 L247.779877,38.3783604 Z M277.853875,15.7515279 L276.949394,23.1052485 L267.226222,23.3315168 L268.356823,14.7333204 C270.391906,14.9595888 275.027371,15.4121254 277.853875,15.7515279 L277.853875,15.7515279 Z M264.851958,23.3315168 L252.415343,23.6709193 C252.415343,20.0506261 252.528403,16.543467 252.641463,13.1494422 L265.98256,14.5070521 L264.851958,23.3315168 L264.851958,23.3315168 Z M282.602401,-23.9585631 L278.079995,13.3757105 L268.582943,12.2443689 L273.331469,-25.4293073 L282.602401,-23.9585631 L282.602401,-23.9585631 Z M270.957206,-25.6555756 L269.713545,-16.0391718 L254.676545,-18.7543917 C255.015726,-22.487819 255.354906,-25.6555756 255.581027,-27.8051247 L270.957206,-25.6555756 L270.957206,-25.6555756 Z M229.124953,-10.9481345 L232.742877,-31.0860154 L250.945561,-28.4839296 C250.49332,-24.4110998 249.701899,-17.62305 249.023538,-9.02485369 L229.124953,-10.9481345 L229.124953,-10.9481345 Z M234.099599,-8.11978039 L237.830584,3.98557499 L226.185389,5.4563191 L228.785772,-8.57231704 L234.099599,-8.11978039 L234.099599,-8.11978039 Z M223.811126,-8.23291456 L220.306262,10.6604906 L178.700128,5.90885575 L179.60461,0.930952605 L223.811126,-8.23291456 L223.811126,-8.23291456 Z M201.990518,-21.6958799 L205.156202,-6.76217044 L180.28297,-1.55799897 L183.561715,-19.2069283 L201.990518,-21.6958799 L201.990518,-21.6958799 Z M121.152515,-24.0716973 L174.969144,-16.1523059 L173.160181,-6.30963379 L119.569673,-15.6997693 L121.152515,-24.0716973 L121.152515,-24.0716973 Z M119.117432,-13.437086 L143.199243,-9.25112202 L141.842521,0.478415955 L116.96929,-2.01053562 L119.117432,-13.437086 L119.117432,-13.437086 Z M42.8018349,-1.78426729 L31.4958204,21.7476385 L-4.23118521,5.79572159 L-2.98752362,-8.34604872 L42.8018349,-1.78426729 L42.8018349,-1.78426729 Z M-7.73604969,-9.02485369 L-10.9017337,28.0831516 L-21.8685677,27.4043466 L-24.9211916,-11.6269394 L-7.73604969,-9.02485369 L-7.73604969,-9.02485369 Z M-24.2428308,27.4043466 L-38.7145293,26.6124075 L-38.488409,16.8828695 L-25.1473119,16.8828695 L-24.2428308,27.4043466 L-24.2428308,27.4043466 Z M-27.2954547,-11.8532078 L-25.2603721,14.3939179 L-38.3753488,14.3939179 L-37.5839278,-13.3239519 L-27.2954547,-11.8532078 L-27.2954547,-11.8532078 Z M-80.5467827,2.28856256 L-77.7202791,-18.98066 L-55.3343705,-15.8129034 L-58.1608741,4.32497748 L-80.5467827,2.28856256 L-80.5467827,2.28856256 Z M-53.0731676,-15.473501 L-45.4981379,-14.3421593 L-46.0634386,5.4563191 L-55.8996712,4.5512458 L-53.0731676,-15.473501 L-53.0731676,-15.473501 Z M-81.7904443,11.7918322 L-80.772903,4.5512458 L-58.3869944,6.58766073 L-59.4045357,14.0545155 L-81.7904443,11.7918322 L-81.7904443,11.7918322 Z M-57.1433328,14.2807838 L-56.1257915,6.81392905 L-46.0634386,7.71900235 L-46.2895589,15.4121254 L-57.1433328,14.2807838 L-57.1433328,14.2807838 Z M-83.5994066,24.9153951 L-82.4688051,16.543467 L-59.9698364,18.8061503 L-60.422077,26.4992733 L-83.5994066,24.9153951 L-83.5994066,24.9153951 Z M-57.5955734,19.0324186 L-46.4026191,20.1637602 L-47.3071002,51.0493866 L-59.5175958,51.9544599 L-57.5955734,19.0324186 L-57.5955734,19.0324186 Z M-83.938587,27.2912125 L-60.5351371,28.8750907 L-61.8918589,52.1807282 L-87.5565116,54.104009 L-83.938587,27.2912125 L-83.938587,27.2912125 Z M-39.3928901,51.8413257 L-38.8275894,31.2509082 L-24.6950713,32.0428473 L-30.3480786,54.4434115 L-39.3928901,51.8413257 L-39.3928901,51.8413257 Z M-25.0342518,43.3562635 L-12.3715156,45.8452151 L-13.5021171,59.4213146 L-28.0868757,55.1222164 L-25.0342518,43.3562635 L-25.0342518,43.3562635 Z M-47.4201604,55.8010214 L-48.3246415,88.1573919 L-56.5780321,89.5150018 L-59.4045357,56.7060947 L-47.4201604,55.8010214 L-47.4201604,55.8010214 Z M-61.7787987,56.8192289 L-58.9522951,89.8544043 L-71.0497306,91.8908192 L-74.7807153,57.8374363 L-61.7787987,56.8192289 L-61.7787987,56.8192289 Z M-96.1490826,59.4213146 L-79.4161812,58.1768388 L-75.6851965,92.6827584 L-90.0438348,95.0585758 L-96.1490826,59.4213146 L-96.1490826,59.4213146 Z M-62.6832799,95.2848441 L-48.4377017,92.9090267 L-49.5683031,134.655533 C-53.1862277,133.750459 -58.7261748,132.279715 -65.2836632,130.130166 L-62.6832799,95.2848441 L-62.6832799,95.2848441 Z M-92.9833986,143.140595 L-86.9912109,127.52808 C-84.6169479,128.546288 -82.355745,129.451361 -79.981482,130.2433 L-83.8255269,146.647754 L-92.9833986,143.140595 L-92.9833986,143.140595 Z M-75.5721363,131.827179 C-64.379182,135.786874 -54.7690698,138.38896 -49.7944234,139.520302 L-50.0205437,149.362974 L-66.4142646,158.979378 L-79.5292414,149.023571 L-75.5721363,131.827179 L-75.5721363,131.827179 Z M-83.2602262,165.088622 L-80.0945421,151.512523 L-67.8840465,160.789524 L-71.388911,169.387721 L-83.2602262,165.088622 L-83.2602262,165.088622 Z M-69.2407682,170.17966 L-65.9620241,162.260268 L-54.0907089,171.311001 C-54.8821299,172.442343 -55.4474306,173.686819 -55.8996712,175.044429 L-69.2407682,170.17966 L-69.2407682,170.17966 Z M-69.6930088,175.044429 L-56.9172125,179.682929 L-56.9172125,180.814271 C-56.9172125,182.737552 -56.5780321,184.547698 -56.0127314,186.244711 L-67.4318059,191.788285 L-69.6930088,175.044429 L-69.6930088,175.044429 Z M-89.1393537,181.040539 L-71.0497306,183.076954 L-69.6930088,192.919626 L-83.938587,199.933944 L-89.1393537,181.040539 L-89.1393537,181.040539 Z M-66.7534451,200.273347 L-51.9425662,193.032761 C-49.455243,195.521712 -46.2895589,197.218725 -42.7846945,197.784395 L-45.0458973,211.247361 L-66.7534451,200.273347 L-66.7534451,200.273347 Z M-94.7923609,214.075715 L-86.4259102,210.002885 L-82.4688051,223.805253 L-91.1744363,226.067936 L-94.7923609,214.075715 L-94.7923609,214.075715 Z M-84.6169479,246.884622 L-90.3830153,228.217485 L-81.7904443,225.954802 L-75.4590762,248.129098 L-84.6169479,246.884622 L-84.6169479,246.884622 Z M-70.3713697,249.034171 L-82.1296247,207.853336 L-69.4668885,201.630957 L-55.7866111,208.645275 L-61.7787987,250.278647 L-70.3713697,249.034171 L-70.3713697,249.034171 Z M-98.0711051,249.82611 L-74.8937755,253.107001 L-76.4766175,264.646685 L-94.5662406,261.931465 L-98.0711051,249.82611 L-98.0711051,249.82611 Z M-90.6091355,275.394431 L-93.7748196,264.533551 L-76.7027378,267.135637 L-78.1725197,277.770248 L-90.6091355,275.394431 L-90.6091355,275.394431 Z" fill="#DEE7E9" mask="url(#mask-2)"></path>
                            </g>
                        </g>
                        <polygon id="Rectangle" stroke="#000000" stroke-width="4" points="2.70766594 52.6676967 26.3883482 43.6464844 48.3005569 54.4719391 70.2127655 43.6464844 93.8934478 52.6676967 95.6619214 91.7579527 71.9812392 82.7367404 48.3005569 93.5621951 24.6198746 82.7367404 0.939192305 91.7579527"></polygon>
                        <path d="M35.926178,68.1999193 C36.5300203,68.9189554 37.5051138,68.9280658 38.1128845,68.1999193 C38.1128845,68.1999193 62.4648438,39.8411653 62.4648438,25.7881072 C62.4648438,11.7350492 51.0725893,0.342794736 37.0195312,0.342794736 C22.9664732,0.342794736 11.5742188,11.7350492 11.5742188,25.7881072 C11.5742188,39.8411653 35.926178,68.1999193 35.926178,68.1999193 Z" id="Oval-6" stroke="#000000" stroke-width="4" fill="#F47361"></path>
                        <circle id="Oval-7" stroke="#000000" stroke-width="4" fill="#FFFFFF" cx="36.7919632" cy="25.9920267" r="9.54499833"></circle>
                    </g>
                </g>
            </g>
        </g>
    </g>
</svg>