<?xml version="1.0" encoding="UTF-8" standalone="no"?>
<svg width="170px" height="170px" viewBox="0 0 170 170" version="1.1" xmlns="http://www.w3.org/2000/svg" xmlns:xlink="http://www.w3.org/1999/xlink">
    <!-- Generator: Sketch 47 (45396) - http://www.bohemiancoding.com/sketch -->
    <title>宗教</title>
    <desc>Created with Sketch.</desc>
    <defs>
        <circle id="path-1" cx="85" cy="85" r="85"></circle>
    </defs>
    <g id="Page-1" stroke="none" stroke-width="1" fill="none" fill-rule="evenodd">
        <g id="九大类icon-copy-2" transform="translate(-198.000000, -201.000000)">
            <g id="宗教" transform="translate(198.000000, 201.000000)">
                <rect id="Rectangle-6" fill="#F3F3F5" x="0" y="0" width="170" height="170"></rect>
                <g id="Group-20">
                    <circle id="Oval-2" fill="#FFFFFF" cx="85" cy="85" r="85"></circle>
                    <g id="宗教">
                        <g id="Mask">
                            <mask id="mask-2" fill="white">
                                <use xlink:href="#path-1"></use>
                            </mask>
                            <use fill="#F3F3F5" xlink:href="#path-1"></use>
                        </g>
                        <g id="Oval-5" opacity="0.8" transform="translate(35.000000, 31.000000)">
                            <path d="M57.5921928,10.8309695 C57.5921928,15.4786046 53.7930298,19.2467543 49.1060203,19.2467543 C44.4198527,19.2467543 40.6206897,15.4786046 40.6206897,10.8309695 C40.6206897,6.1819428 44.4198527,2.4137931 49.1060203,2.4137931 C53.7930298,2.4137931 57.5921928,6.1819428 57.5921928,10.8309695 L57.5921928,10.8309695 Z" id="Fill-1" fill="#9E78BE"></path>
                            <path d="M97.4542618,76.4861419 C97.4542618,81.133777 93.6550987,84.9019267 88.9689311,84.9019267 C84.2819217,84.9019267 80.4827586,81.133777 80.4827586,76.4861419 C80.4827586,71.8371152 84.2819217,68.0689655 88.9689311,68.0689655 C93.6550987,68.0689655 97.4542618,71.8371152 97.4542618,76.4861419 L97.4542618,76.4861419 Z" id="Fill-2" fill="#9E78BE"></path>
                            <path d="M20.0749514,76.4861419 C20.0749514,81.133777 16.2757884,84.9019267 11.5899014,84.9019267 C6.90261134,84.9019267 3.10344828,81.133777 3.10344828,76.4861419 C3.10344828,71.8371152 6.90261134,68.0689655 11.5899014,68.0689655 C16.2757884,68.0689655 20.0749514,71.8371152 20.0749514,76.4861419 L20.0749514,76.4861419 Z" id="Fill-3" fill="#9E78BE"></path>
                            <path d="M88.7129357,22.2453573 C85.5473874,22.2453573 82.7182891,23.6260937 80.7879809,25.829817 L59.9780294,13.8741034 C60.3374893,12.8270704 60.5392471,11.6920889 60.5392471,10.5114632 C60.5392471,4.74498908 55.824738,0.0689655172 50.011084,0.0689655172 C44.1971495,0.0689655172 39.4826404,4.74498908 39.4826404,10.5114632 C39.4826404,11.6920889 39.6843982,12.8053616 40.0438581,13.8512813 L19.2339066,25.8078298 C17.3035984,23.6260937 14.4745001,22.2236485 11.3100742,22.2236485 C5.49501728,22.2236485 0.780508179,26.8982804 0.780508179,32.6658679 C0.780508179,37.6527728 4.32768451,41.8383998 9.04219361,42.8637239 L9.06520353,66.2869811 C4.32768451,67.3111919 0.75862069,71.4968189 0.75862069,76.4837238 C0.75862069,82.251033 5.47312979,86.9259432 11.2870643,86.9259432 C14.3847053,86.9259432 17.1686256,85.590851 19.0989338,83.4753546 L39.9770732,95.4321815 C39.6395008,96.456114 39.4607529,97.5248558 39.4607529,98.6598373 C39.4607529,104.427425 44.1741396,109.103448 49.988916,109.103448 C55.8028505,109.103448 60.5173596,104.427425 60.5173596,98.6598373 C60.5173596,97.5248558 60.3374893,96.456114 60.0010393,95.4321815 L80.8780563,83.4753546 C82.8080839,85.590851 85.5922848,86.9259432 88.6899258,86.9259432 C94.5038603,86.9259432 99.2183694,82.251033 99.2183694,76.4837238 C99.2183694,71.4291876 95.5595107,67.1773209 90.7333193,66.2424502 L90.7333193,42.9082548 C95.5825207,41.9950929 99.2413793,37.7646567 99.2413793,32.6875767 C99.2413793,26.9211025 94.5268702,22.2453573 88.7129357,22.2453573 Z M88.7129357,26.2754044 C92.2819995,26.2754044 95.1778827,29.1476479 95.1778827,32.6875767 C95.1778827,36.2286187 92.2819995,39.099749 88.7129357,39.099749 C85.14303,39.099749 82.2468662,36.2286187 82.2468662,32.6875767 C82.2468662,29.1476479 85.16604,26.2754044 88.7129357,26.2754044 L88.7129357,26.2754044 Z M50.011084,4.12099975 C53.5798673,4.12099975 56.4760311,6.99324326 56.4760311,10.5342853 C56.4760311,11.6247359 56.2074884,12.6486685 55.7130557,13.5618304 C55.6681582,13.6066396 55.6462707,13.6511705 55.6010927,13.7174102 L55.5331854,13.8512813 C54.41075,15.6993139 52.3457496,16.9464576 50.011084,16.9464576 C46.4420202,16.9464576 43.5458564,14.0739358 43.5458564,10.5342853 C43.5458564,6.99324326 46.4420202,4.12099975 50.011084,4.12099975 L50.011084,4.12099975 Z M4.84400477,32.6875767 C4.84400477,29.1476479 7.73988799,26.2754044 11.3100742,26.2754044 C14.8788575,26.2754044 17.7750213,29.1476479 17.7750213,32.6875767 C17.7750213,36.2286187 14.8788575,39.099749 11.3100742,39.099749 C7.73988799,39.099749 4.84400477,36.2286187 4.84400477,32.6875767 L4.84400477,32.6875767 Z M11.3100742,82.9187182 C7.73988799,82.9187182 4.84400477,80.0461964 4.84400477,76.5065459 C4.84400477,72.9666171 7.73988799,70.0943736 11.3100742,70.0943736 C14.8788575,70.0943736 17.7750213,72.9666171 17.7750213,76.5065459 C17.7520113,80.0461964 14.8558475,82.9187182 11.3100742,82.9187182 L11.3100742,82.9187182 Z M50.011084,105.073123 C46.4420202,105.073123 43.5458564,102.200879 43.5458564,98.6598373 C43.5458564,95.1201868 46.4420202,92.247665 50.011084,92.247665 C53.5798673,92.247665 56.4760311,95.1201868 56.4760311,98.6598373 C56.4760311,102.200879 53.5798673,105.073123 50.011084,105.073123 L50.011084,105.073123 Z M58.0247113,91.9139615 C56.0944031,89.6657073 53.2215298,88.2176179 50.011084,88.2176179 C46.8003577,88.2176179 43.9274844,89.6428852 41.9971762,91.9139615 L21.2091122,80.0244876 C21.6134696,78.9329237 21.8382373,77.7305892 21.8382373,76.5065459 C21.8382373,71.3629478 18.0895838,67.0882591 13.150307,66.2196281 L13.1272971,42.9516725 C18.0665739,42.1058635 21.8382373,37.809466 21.8382373,32.6658679 C21.8382373,31.4852422 21.6353571,30.3502607 21.2770196,29.3032277 L42.0869711,17.3464008 C44.0172793,19.5512374 46.8682651,20.9319738 50.034094,20.9319738 C53.1985198,20.9319738 56.0276182,19.5512374 57.9579264,17.3464008 L78.7678778,29.3032277 C78.4084179,30.3502607 78.2066602,31.4852422 78.2066602,32.6658679 C78.2066602,37.7201258 81.8655188,41.9722708 86.6917102,42.9082548 L86.6917102,66.2424502 C81.8655188,67.1773209 78.2066602,71.4074787 78.2066602,76.4837238 C78.2066602,77.7305892 78.4314278,78.9112149 78.8346627,80.0016655 L58.0247113,91.9139615 Z M95.1778827,76.5065459 C95.1778827,80.0461964 92.2819995,82.9187182 88.7129357,82.9187182 C85.14303,82.9187182 82.2468662,80.0461964 82.2468662,76.5065459 C82.2468662,72.9666171 85.14303,70.0943736 88.7129357,70.0943736 C92.2819995,70.0943736 95.1778827,72.9666171 95.1778827,76.5065459 L95.1778827,76.5065459 Z" id="Fill-5" fill="#000000"></path>
                            <path d="M60.1129069,62.546346 L60.1129069,55.2655426 C61.3473052,54.0857519 62.0432152,52.4606521 62.0432152,50.7231118 L62.0432152,41.1712322 C62.0432152,35.3156962 57.2389112,30.5517241 51.3351819,30.5517241 L49.2701814,30.5517241 C43.3664521,30.5517241 38.5621481,35.3156962 38.5621481,41.1712322 L38.5621481,50.7231118 C38.5621481,52.4606521 39.2799456,54.0857519 40.4924563,55.2655426 L40.4924563,62.546346 C38.1575102,63.7486805 32.5453334,66.7993259 27.2928972,71.074293 C26.4168364,71.7862309 26.3051541,73.0561967 27.0232321,73.9248277 C27.7421519,74.7923454 29.0214476,74.9042293 29.8972278,74.1911782 C35.7111623,69.4489149 41.9973615,66.3089293 43.2084693,65.7305841 C44.062362,65.3078188 44.5786823,64.4837187 44.5786823,63.5257476 L44.5786823,54.3086848 C44.5786823,53.6401645 44.2422323,52.9944664 43.6810146,52.6387758 C43.0300021,52.2160105 42.6472516,51.502681 42.6472516,50.7231118 L42.6472516,41.1712322 C42.6472516,37.5422416 45.6332103,34.580658 49.2931913,34.580658 L51.3581918,34.580658 C55.0170504,34.580658 58.0030091,37.5422416 58.0030091,41.1712322 L58.0030091,50.7231118 C58.0030091,51.4809722 57.6216617,52.1931884 56.9703686,52.6387758 C56.4091509,53.0172885 56.0715785,53.6401645 56.0715785,54.3086848 L56.0715785,63.5257476 C56.0715785,64.4620099 56.6109086,65.3078188 57.4636789,65.7305841 C58.6759091,66.3089293 64.9623889,69.471737 70.7760428,74.1911782 C71.1576708,74.5031728 71.6069256,74.6584744 72.0553385,74.6584744 C72.6395661,74.6584744 73.2226713,74.414111 73.6273092,73.9248277 C74.3451066,73.0561967 74.2104144,71.7862309 73.3576441,71.074293 C68.0600299,66.7993259 62.4478531,63.7269716 60.1129069,62.546346 L60.1129069,62.546346 Z" id="Fill-7" fill="#000000"></path>
                        </g>
                    </g>
                </g>
            </g>
        </g>
    </g>
</svg>