<?xml version="1.0" encoding="UTF-8" standalone="no"?>
<svg width="170px" height="170px" viewBox="0 0 170 170" version="1.1" xmlns="http://www.w3.org/2000/svg" xmlns:xlink="http://www.w3.org/1999/xlink">
    <!-- Generator: Sketch 47 (45396) - http://www.bohemiancoding.com/sketch -->
    <title>组织</title>
    <desc>Created with Sketch.</desc>
    <defs>
        <circle id="path-1" cx="68" cy="68" r="68"></circle>
    </defs>
    <g id="Page-1" stroke="none" stroke-width="1" fill="none" fill-rule="evenodd">
        <g id="九大类icon-copy-2" transform="translate(-423.000000, -834.000000)">
            <g id="组织" transform="translate(423.000000, 834.000000)">
                <rect id="Rectangle-6" fill="#F3F3F5" x="0" y="0" width="170" height="170"></rect>
                <g>
                    <circle id="Mask-Copy" fill="#F3F3F5" cx="85" cy="85" r="85"></circle>
                    <g id="蒙版-copy" opacity="0.8" transform="translate(17.000000, 17.000000)">
                        <mask id="mask-2" fill="white">
                            <use xlink:href="#path-1"></use>
                        </mask>
                        <g></g>
                        <g id="组织" mask="url(#mask-2)">
                            <g transform="translate(9.379310, 4.689655)">
                                <path d="M19.903082,73.9717619 C20.5974005,73.234296 21.5391813,72.8280697 22.5551413,72.8280697 L26.3851684,72.8280697 L25.7039055,74.6348318 C25.3567462,75.1266726 23.6571494,77.1743363 19.0117432,77.9495907 L18.9286623,76.6795433 C18.8621977,75.6704726 19.2081701,74.7092279 19.903082,73.9717619 L19.903082,73.9717619 Z M31.7640599,76.2656412 C31.1819005,76.0761084 30.8804357,75.9408964 30.7391983,75.8682717 C30.6365341,75.8157221 30.5516729,75.7673056 30.4763067,75.7224317 L31.0276075,74.2598992 C31.4750572,74.8426685 31.7296407,75.5340797 31.7640599,76.2656412 L31.7640599,76.2656412 Z M28.0432248,93.8148511 C26.353123,94.7394882 24.3348518,94.7394882 22.6453434,93.8148511 C20.9611759,92.8931663 19.8805315,91.2033123 19.7553168,89.2944033 L19.3286373,82.7829745 C23.2856594,82.2049287 25.8938046,80.8569425 27.5435528,79.5821715 C27.8367095,79.7846942 28.1601314,79.9765888 28.5114447,80.1578555 C29.1980485,80.5103512 30.1724682,80.8593043 31.4625951,81.2129809 L30.932658,89.2944033 C30.8080367,91.2033123 29.7273922,92.8931663 28.0432248,93.8148511 L28.0432248,93.8148511 Z M14.3342915,80.7760515 L14.3342915,80.7760515 L14.9134837,89.6091105 C15.1467035,93.1712659 17.1631943,96.3248333 20.3066175,98.0447999 C21.8839668,98.9080307 23.6138287,99.3396461 25.3442841,99.3396461 C27.074146,99.3396461 28.8046014,98.9080307 30.3813572,98.0447999 C33.5253738,96.3248333 35.5418647,93.1712659 35.7744911,89.6091105 L36.4361707,79.5154512 L36.6017389,76.9930696 C36.7542516,74.6720299 35.92463,72.368113 34.3259172,70.6705833 C32.7277977,68.973644 30.4703724,68 28.1334268,68 L22.5551413,68 C20.2176024,68 17.960177,68.973644 16.3620576,70.6705833 C14.7639381,72.368113 13.9343165,74.6720299 14.0868292,76.9930696 L14.3342915,80.7760515 Z" id="Fill-1" fill="#000000"></path>
                                <path d="M87.9035469,73.9717619 C88.5978654,73.234296 89.5396461,72.8280697 90.5556062,72.8280697 L94.3856333,72.8280697 L93.7043703,74.6348318 C93.3572111,75.1266726 91.6576143,77.1743363 87.012208,77.9495907 L86.9291272,76.6795433 C86.8626625,75.6704726 87.2086349,74.7092279 87.9035469,73.9717619 M98.7396631,75.8682717 C98.6369989,75.8157221 98.5521378,75.7673056 98.477365,75.7224317 L99.0280724,74.2598992 C99.4749286,74.8426685 99.7301055,75.5340797 99.7639313,76.2656412 C99.1823654,76.0761084 98.8803071,75.9408964 98.7396631,75.8682717 Z M96.0436896,93.8148511 C94.3535878,94.7394882 92.3353166,94.7394882 90.6458083,93.8148511 C88.9616408,92.8931663 87.8809963,91.2033123 87.7557816,89.2944033 L87.3291021,82.7829745 C91.2861242,82.2049287 93.8942694,80.8569425 95.5440177,79.5821715 C95.8371744,79.7846942 96.1605962,79.9765888 96.5119095,80.1578555 C97.1985134,80.5103512 98.1729331,80.8593043 99.4630599,81.2129809 L98.9331228,89.2944033 C98.8079081,91.2033123 97.7278571,92.8931663 96.0436896,93.8148511 M84.3625224,70.6705833 C82.764403,72.368113 81.9347814,74.6720299 82.0867006,76.9930696 L82.3347563,80.7760515 L82.3347563,80.7760515 L82.9133551,89.6085201 C83.1471683,93.1706755 85.1630657,96.3242429 88.306489,98.0447999 C89.8838382,98.9080307 91.6142936,99.3396461 93.3441555,99.3396461 C95.0746109,99.3396461 96.8044728,98.9080307 98.381822,98.0447999 C101.525245,96.3242429 103.541736,93.1706755 103.774956,89.6085201 L104.436636,79.5148607 L104.602204,76.9930696 C104.754123,74.6720299 103.924501,72.3675226 102.326382,70.6705833 C100.728263,68.973644 98.4708372,68 96.1338917,68 L90.5556062,68 C88.2180672,68 85.9606419,68.973644 84.3625224,70.6705833" id="Fill-5" fill="#000000"></path>
                                <path d="M52.8339979,5.9711715 C53.5283164,5.23370555 54.4700972,4.8274793 55.4860572,4.8274793 L59.3160843,4.8274793 L58.6354148,6.63424137 C58.2876621,7.12608216 56.5880653,9.17374583 51.9432525,9.94900028 L51.8595782,8.67895282 C51.793707,7.66988211 52.1396794,6.70863746 52.8339979,5.9711715 L52.8339979,5.9711715 Z M64.6949758,8.26505079 C64.1134098,8.07551791 63.8113516,7.94030598 63.6707076,7.86768123 C63.56745,7.81513161 63.4825888,7.76671511 63.4078161,7.72184128 L63.9585234,6.25930872 C64.4059731,6.84207805 64.6605566,7.53348929 64.6949758,8.26505079 L64.6949758,8.26505079 Z M60.9741407,25.8142607 C59.2840389,26.7388977 57.2663611,26.7388977 55.5762593,25.8142607 C53.8920918,24.8925758 52.8114474,23.2027219 52.6862327,21.2944033 L52.2595532,14.7829745 C56.2165753,14.2043383 58.8247205,12.8563521 60.4750621,11.5821715 C60.7682189,11.7846942 61.0910473,11.9765888 61.442954,12.157265 C62.1295579,12.5103512 63.1039775,12.8587138 64.393511,13.2123905 L63.8641673,21.2944033 C63.7389526,23.2027219 62.6583081,24.8925758 60.9741407,25.8142607 L60.9741407,25.8142607 Z M47.2658008,12.7754611 L47.2658008,12.7754611 L47.8443996,21.6085201 C48.0782128,25.1706755 50.0941102,28.3242429 53.2375334,30.0447999 C54.8148827,30.9074403 56.5453381,31.3390557 58.2752,31.3390557 C60.0050619,31.3390557 61.7355173,30.9074403 63.3128665,30.0447999 C66.4562897,28.3242429 68.4727806,25.1706755 68.7060004,21.6085201 L69.36768,11.5148607 L69.5332483,8.99247918 C69.6851675,6.67202986 68.8555459,4.36752256 67.2574265,2.67058328 C65.659307,0.973053558 63.4018817,0 61.0643427,0 L55.4860572,0 C53.1485183,0 50.8910929,0.973053558 49.2935669,2.67058328 C47.694854,4.36752256 46.8658259,6.67202986 47.0177451,8.99306963 L47.2658008,12.7754611 Z" id="Fill-10" fill="#000000"></path>
                                <g id="Group-16" stroke-width="1" fill="none" transform="translate(33.000000, 33.000000)">
                                    <path d="M3.18524441,12.3705414 C4.0699679,6.81670046 7.93599763,2.38462694 12.8066123,1.34045664 C13.542999,1.18300239 14.295941,1.1031452 15.0449098,1.1031452 L17.0282532,1.1031452 L23.2723084,8.20666742 C24.3298709,9.40979872 26.0436915,9.40979872 27.1019162,8.20666742 L33.3459714,1.1031452 L35.3293148,1.1031452 C36.0782836,1.1031452 36.8312257,1.18300239 37.5676123,1.34045664 C42.438227,2.38462694 46.3049189,6.81670046 47.1889802,12.3705414 L47.1889802,17.8809015 L2.27932994,17.8809015 L3.18524441,12.3705414 Z" id="Fill-18" fill="#F9BF1C"></path>
                                    <path d="M32.2690728,2.0015478 C32.1386475,2.0506213 31.9750905,2.12227008 31.8058292,2.20646081 C31.3885249,2.41402841 31.0225434,2.6551261 30.8440012,2.83366835 L25.5,8.17766953 L20.1559988,2.83366835 C19.908397,2.58606648 19.5791764,2.34050992 19.2624094,2.16511994 C19.1258218,2.08949305 19.0037782,2.03385371 18.9130421,2.0026383 C18.8933964,1.9958797 18.9137595,2 19.007063,2 C9.89267055,2 2.4482596,9.17078718 2.01950249,18.1730863 L49.0244136,18.1730957 C48.5939111,9.24876167 41.2742413,2.12192297 32.2690728,2.0015478 Z" id="Combined-Shape" stroke="#000000" stroke-width="4"></path>
                                </g>
                                <g id="Group-16-Copy" stroke-width="1" fill="none" transform="translate(0.111328, 100.432175)">
                                    <path d="M3.18524441,12.3705414 C4.0699679,6.81670046 7.93599763,2.38462694 12.8066123,1.34045664 C13.542999,1.18300239 14.295941,1.1031452 15.0449098,1.1031452 L17.0282532,1.1031452 L23.2723084,8.20666742 C24.3298709,9.40979872 26.0436915,9.40979872 27.1019162,8.20666742 L33.3459714,1.1031452 L35.3293148,1.1031452 C36.0782836,1.1031452 36.8312257,1.18300239 37.5676123,1.34045664 C42.438227,2.38462694 46.3049189,6.81670046 47.1889802,12.3705414 L47.1889802,17.8809015 L2.27932994,17.8809015 L3.18524441,12.3705414 Z" id="Fill-18" fill="#F9BF1C"></path>
                                    <path d="M32.2690728,2.0015478 C32.1386475,2.0506213 31.9750905,2.12227008 31.8058292,2.20646081 C31.3885249,2.41402841 31.0225434,2.6551261 30.8440012,2.83366835 L25.5,8.17766953 L20.1559988,2.83366835 C19.908397,2.58606648 19.5791764,2.34050992 19.2624094,2.16511994 C19.1258218,2.08949305 19.0037782,2.03385371 18.9130421,2.0026383 C18.8933964,1.9958797 18.9137595,2 19.007063,2 C9.89267055,2 2.4482596,9.17078718 2.01950249,18.1730863 L49.0244136,18.1730957 C48.5939111,9.24876167 41.2742413,2.12192297 32.2690728,2.0015478 Z" id="Combined-Shape" stroke="#000000" stroke-width="4"></path>
                                </g>
                                <g id="Group-16-Copy-2" stroke-width="1" fill="none" transform="translate(68.047577, 100.296433)">
                                    <path d="M3.18524441,12.3705414 C4.0699679,6.81670046 7.93599763,2.38462694 12.8066123,1.34045664 C13.542999,1.18300239 14.295941,1.1031452 15.0449098,1.1031452 L17.0282532,1.1031452 L23.2723084,8.20666742 C24.3298709,9.40979872 26.0436915,9.40979872 27.1019162,8.20666742 L33.3459714,1.1031452 L35.3293148,1.1031452 C36.0782836,1.1031452 36.8312257,1.18300239 37.5676123,1.34045664 C42.438227,2.38462694 46.3049189,6.81670046 47.1889802,12.3705414 L47.1889802,17.8809015 L2.27932994,17.8809015 L3.18524441,12.3705414 Z" id="Fill-18" fill="#F9BF1C"></path>
                                    <path d="M32.2690728,2.0015478 C32.1386475,2.0506213 31.9750905,2.12227008 31.8058292,2.20646081 C31.3885249,2.41402841 31.0225434,2.6551261 30.8440012,2.83366835 L25.5,8.17766953 L20.1559988,2.83366835 C19.908397,2.58606648 19.5791764,2.34050992 19.2624094,2.16511994 C19.1258218,2.08949305 19.0037782,2.03385371 18.9130421,2.0026383 C18.8933964,1.9958797 18.9137595,2 19.007063,2 C9.89267055,2 2.4482596,9.17078718 2.01950249,18.1730863 L49.0244136,18.1730957 C48.5939111,9.24876167 41.2742413,2.12192297 32.2690728,2.0015478 Z" id="Combined-Shape" stroke="#000000" stroke-width="4"></path>
                                </g>
                                <path d="M58.1190561,61.9080204 C59.4590315,61.9080204 60.5450168,60.8275058 60.5450168,59.4942807 L60.5450168,58.7662619 C60.5450168,57.4330368 59.4590315,56.3525222 58.1190561,56.3525222 C56.7790807,56.3525222 55.6930953,57.4330368 55.6930953,58.7662619 L55.6930953,59.4942807 C55.6930953,60.8275058 56.7790807,61.9080204 58.1190561,61.9080204" id="Fill-14" fill="#000000"></path>
                                <path d="M41.0753169,85.4994425 C39.9151522,86.166055 39.517551,87.6427583 40.1875387,88.7970785 C40.6367687,89.5717425 41.4521479,90.0045387 42.2912645,90.0045387 C42.7025147,90.0045387 43.1196992,89.9000299 43.5018711,89.6809748 L58.1187594,81.2836643 L72.7362411,89.6809748 C73.118413,89.9000299 73.5355975,90.0045387 73.9468477,90.0045387 C74.7853708,90.0045387 75.60075,89.5717425 76.0505735,88.7970785 C76.7205612,87.6427583 76.32296,86.166055 75.1627953,85.4994425 L60.5453136,77.1027224 L60.5453136,68.0689121 C60.5453136,66.735687 59.4587348,65.6551724 58.1187594,65.6551724 C56.7793774,65.6551724 55.6927986,66.735687 55.6927986,68.0689121 L55.6927986,77.1027224 L41.0753169,85.4994425 Z" id="Fill-16" fill="#000000"></path>
                            </g>
                        </g>
                    </g>
                </g>
            </g>
        </g>
    </g>
</svg>