<?xml version="1.0" encoding="UTF-8" standalone="no"?>
<svg width="170px" height="170px" viewBox="0 0 170 170" version="1.1" xmlns="http://www.w3.org/2000/svg" xmlns:xlink="http://www.w3.org/1999/xlink">
    <!-- Generator: Sketch 47 (45396) - http://www.bohemiancoding.com/sketch -->
    <title>自然</title>
    <desc>Created with Sketch.</desc>
    <defs>
        <circle id="path-1" cx="85" cy="85" r="85"></circle>
        <circle id="path-3" cx="68" cy="68.1308321" r="68"></circle>
    </defs>
    <g id="Page-1" stroke="none" stroke-width="1" fill="none" fill-rule="evenodd">
        <g id="九大类icon-copy-2" transform="translate(-198.000000, -834.000000)">
            <g id="自然" transform="translate(198.000000, 834.000000)">
                <rect id="Rectangle-6" fill="#F3F3F5" x="0" y="0" width="170" height="170"></rect>
                <g>
                    <mask id="mask-2" fill="white">
                        <use xlink:href="#path-1"></use>
                    </mask>
                    <use id="Mask" fill="#F3F3F5" xlink:href="#path-1"></use>
                    <g id="icon-nature8" opacity="0.8" mask="url(#mask-2)">
                        <g transform="translate(17.000000, 17.000000)">
                            <g>
                                <mask id="mask-4" fill="white">
                                    <use xlink:href="#path-3"></use>
                                </mask>
                                <g id="Oval-3"></g>
                                <g id="hills" mask="url(#mask-4)">
                                    <g transform="translate(-37.862069, 28.137931)" id="Layer_1">
                                        <g>
                                            <g id="Group">
                                                <path d="M47.7153825,71.8366783 L73.1650054,65.8715652 L94.1963227,66.6369545 L104.285493,67.8757745 L135.004681,63.1758149 L158.542262,67.7544114 L172.270609,73.3777613 C172.270609,73.3777613 167.533439,117.781216 161.387426,116.392982 C155.241413,115.004748 59.9867996,111.279701 59.0960399,111.279701 C58.2052802,111.279701 43.3062365,88.8217942 43.3062365,88.8217942 L47.7153825,71.8366783 Z" id="Path-5" fill="#48C25F"></path>
                                                <path d="M144.591061,43.1673101 C144.591061,50.6639334 140.364244,52.0179052 135.145838,52.0179052 C129.932002,52.0179052 125.705185,50.6639334 125.705185,43.1673101 C125.705185,35.6706868 129.932002,20.9362877 135.145838,20.9362877 C140.364244,20.9362877 144.591061,35.6706868 144.591061,43.1673101 L144.591061,43.1673101 Z" id="Shape" fill="#48C25F"></path>
                                                <path d="M92.4663524,2.34395601 C101.046875,2.34395601 108.000964,9.30252708 108.000964,17.8847647 C108.000964,26.4670024 101.046875,33.4255735 92.4663524,33.4255735 C91.643859,33.4255735 90.8368261,33.3606268 90.0514377,33.2369189 C90.104003,32.958576 90.1287397,32.6740478 90.1287397,32.3833342 C90.1287397,29.7576333 87.9982963,27.6267642 85.3731201,27.6267642 L92.2560909,27.6267642 C93.5702251,27.6267642 94.7575839,27.0948201 95.6171823,26.23505 C96.4767806,25.3752799 97.0086184,24.1876838 97.0086184,22.873287 C97.0086184,20.2475862 94.8812671,18.1167171 92.2560909,18.1167171 L76.9317408,18.1167171 C76.9286487,18.0393997 76.9286487,17.9620822 76.9286487,17.8847647 C76.9286487,9.30252708 83.8858295,2.34395601 92.4663524,2.34395601 L92.4663524,2.34395601 Z" id="Shape" fill="#FFD039"></path>
                                                <g id="Shape" fill="#000000">
                                                    <path d="M55.5904085,39.4566443 L83.0295294,39.4566443 C85.7224221,39.4566443 88.0680743,37.9433871 89.2625449,35.7228297 C89.5491808,35.7367469 89.8361258,35.746025 90.1224524,35.746025 C99.9670178,35.746025 107.976124,27.7337716 107.976124,17.8856925 C107.976124,8.0376135 99.9670178,0.0253601257 90.1224524,0.0253601257 C80.9501053,0.0253601257 73.3741993,6.97929215 72.3797863,15.8924485 C69.0211686,16.4404747 66.4491762,19.3615282 66.4491762,22.8729778 C66.4491762,23.7281088 66.601925,24.5486017 66.8808306,25.3081684 L55.5904085,25.3081684 C51.6903676,25.3081684 48.5172747,28.481586 48.5172747,32.3827156 C48.5172747,36.2832267 51.6903676,39.4566443 55.5904085,39.4566443 L55.5904085,39.4566443 Z M90.1221432,4.66440751 C97.409249,4.66440751 103.337695,10.5955842 103.337695,17.8856925 C103.337695,25.1758009 97.409249,31.1069776 90.1221432,31.1069776 C90.0766897,31.1069776 90.0312361,31.1048127 89.9854733,31.1041942 C89.9125002,30.7061639 89.8070603,30.3192673 89.6703903,29.9472157 L89.9106449,29.9472157 C93.8106859,29.9472157 96.9837787,26.7737981 96.9837787,22.8729778 C96.9837787,18.9721574 93.8106859,15.7987398 89.9106449,15.7987398 L77.0698537,15.7987398 C78.0732338,9.49674853 83.5434331,4.66440751 90.1221432,4.66440751 L90.1221432,4.66440751 Z M55.5904085,29.9472157 L73.5216915,29.9472157 C74.8024312,29.9472157 75.8407518,28.9086877 75.8407518,27.6276921 C75.8407518,26.3466964 74.8024312,25.3081684 73.5216915,25.3081684 C72.1791103,25.3081684 71.0869875,24.2158273 71.0869875,22.8729778 C71.0869875,21.5301282 72.1791103,20.4377871 73.5216915,20.4377871 L89.9106449,20.4377871 C91.2532262,20.4377871 92.3456582,21.5301282 92.3456582,22.8729778 C92.3456582,24.2158273 91.2532262,25.3081684 89.9106449,25.3081684 L83.0295294,25.3081684 C81.7487897,25.3081684 80.7104691,26.3466964 80.7104691,27.6276921 C80.7104691,28.9086877 81.7487897,29.9472157 83.0295294,29.9472157 C84.3721106,29.9472157 85.4645426,31.039866 85.4645426,32.3827156 C85.4645426,33.7255652 84.3721106,34.8179062 83.0295294,34.8179062 L55.5904085,34.8179062 C54.2478272,34.8179062 53.1553952,33.7255652 53.1553952,32.3827156 C53.1553952,31.0395568 54.2478272,29.9472157 55.5904085,29.9472157 L55.5904085,29.9472157 Z"></path>
                                                    <path d="M3.55808219,117.070784 L193.193866,117.070784 C194.981148,117.070784 196.430133,115.62151 196.430133,113.83387 C196.430133,112.04623 194.981148,110.596955 193.193866,110.596955 L82.1083359,110.596955 C77.5305277,104.857691 70.471602,99.0002411 64.6048963,94.589406 C72.4983685,86.7526208 83.4144935,78.8881365 93.5828461,74.3637935 C105.266203,69.1661724 117.728422,66.530461 130.622144,66.530461 C152.912691,66.530461 174.373028,74.6581369 191.049731,89.416308 C192.388682,90.6010186 194.433572,90.4758579 195.618046,89.1370702 C196.80252,87.7982825 196.677384,88.0973802 195.338864,86.9126696 C179.409955,72.8165554 158.258492,64.1680314 137.184781,62.5051206 L137.184781,54.5099424 C143.09852,53.604038 147.24836,49.9419297 147.24836,43.747339 C147.24836,39.9700759 146.131201,34.7560544 144.402171,30.4639061 C141.330737,22.8381677 137.646139,21.2374057 135.09596,21.2374057 C132.545781,21.2374057 128.861183,22.8381677 125.789749,30.4639061 C124.061151,34.7560544 122.943991,39.9700759 122.943991,43.747339 C122.943991,49.9419297 127.021614,53.604038 132.935353,54.5099424 L132.935353,62.4014601 C132.522837,62.396281 131.035954,62.4014601 130.623007,62.4014601 C120.799424,62.4014601 111.210579,63.83865 101.985923,66.6694394 C94.1839288,64.6983745 86.1131091,63.6962258 77.9797216,63.6962258 C59.4695659,63.6962258 41.5013771,68.8860783 25.9275948,78.7120552 C22.0984431,78.1997596 18.2170796,77.9386485 14.3024904,77.9386485 C10.5807827,77.9386485 6.82800689,78.1768854 3.14858647,78.6464538 C1.37554338,78.8726062 0.121597588,80.4936528 0.348136314,82.2670503 C0.574243538,84.0404477 2.19626082,85.2972336 3.96800941,85.0680601 C7.37687787,84.6330188 10.8539237,84.412477 14.3029219,84.412477 C30.58782,84.412477 46.2608479,89.2605114 59.6279272,98.4330632 C64.755901,101.948784 69.4307973,106.028159 73.5969524,110.596955 L3.55808219,110.596955 C1.77079952,110.596955 0.321814671,112.04623 0.321814671,113.83387 C0.321814671,115.62151 1.77079952,117.070784 3.55808219,117.070784 Z M129.211519,33.4884788 C130.790817,29.3081119 134.647197,25.6063699 135.095097,25.3871229 C135.543428,25.6063699 139.399808,29.3081119 140.978675,33.4884788 C142.259374,36.878607 143.11979,41.0015726 143.11979,43.7477706 C143.11979,47.5444553 139.356614,50.5306235 135.095097,50.5306235 C130.834011,50.5306235 127.070835,47.5444553 127.070835,43.7477706 C127.070835,41.0015726 127.931251,36.878607 129.211519,33.4884788 Z M95.0372777,69.1540948 C80.8841595,73.5832772 69.5024267,82.9178858 60.9897486,91.5746893 C53.126913,86.536756 44.5805778,82.8427894 35.6286303,80.5808337 C55.1116649,62.7113407 90.919451,68.5917349 95.0372777,69.1540948 Z"></path>
                                                </g>
                                            </g>
                                        </g>
                                    </g>
                                </g>
                            </g>
                        </g>
                    </g>
                </g>
            </g>
        </g>
    </g>
</svg>