<?xml version="1.0" encoding="UTF-8" standalone="no"?>
<svg width="170px" height="170px" viewBox="0 0 170 170" version="1.1" xmlns="http://www.w3.org/2000/svg" xmlns:xlink="http://www.w3.org/1999/xlink">
    <!-- Generator: Sketch 47 (45396) - http://www.bohemiancoding.com/sketch -->
    <title>观念</title>
    <desc>Created with Sketch.</desc>
    <defs>
        <circle id="path-1" cx="85" cy="85" r="85"></circle>
        <circle id="path-3" cx="68" cy="68" r="68"></circle>
    </defs>
    <g id="Page-1" stroke="none" stroke-width="1" fill="none" fill-rule="evenodd">
        <g id="九大类icon-copy-2" transform="translate(-198.000000, -623.000000)">
            <g id="观念" transform="translate(198.000000, 623.000000)">
                <rect id="Rectangle-6" fill="#F3F3F5" x="0" y="0" width="170" height="170"></rect>
                <g>
                    <mask id="mask-2" fill="white">
                        <use xlink:href="#path-1"></use>
                    </mask>
                    <use id="Mask" fill="#F3F3F5" xlink:href="#path-1"></use>
                    <g opacity="0.8" mask="url(#mask-2)">
                        <g transform="translate(17.000000, 17.000000)">
                            <g>
                                <mask id="mask-4" fill="white">
                                    <use xlink:href="#path-3"></use>
                                </mask>
                                <g id="蒙版"></g>
                                <g id="Page-1" mask="url(#mask-4)">
                                    <g transform="translate(18.758621, 25.793103)">
                                        <path d="M91.5365095,36.9529702 C92.2182078,36.9529702 92.7820267,37.4650491 92.8595009,38.1357073 C93.027794,39.595958 93.1119405,41.0620821 93.1119405,42.4966371 L93.1156474,49.2487367 C93.1267681,64.0505694 85.7518974,77.9112049 73.4116388,86.3228806 L72.5909319,86.8782751 L72.5909319,108.855085 C72.5909319,109.961102 71.6857078,110.857516 70.5688198,110.857516 L37.2964578,110.857516 C36.1799405,110.857516 35.2747164,109.961102 35.2747164,108.855085 L35.2747164,97.4777573 C35.2747164,95.6834622 33.806044,94.2290848 31.9941129,94.2290848 L18.6392767,94.2290848 C17.5223888,94.2290848 16.6171647,93.3326715 16.6171647,92.2270216 L16.6171647,73.6119448 C16.6171647,72.4883079 15.8327853,71.5140732 14.7266474,71.2640906 L7.42962155,69.6158941 C5.97874224,69.2880902 5.25404397,67.6707285 5.98207845,66.3855757 L15.4468974,49.6745514 L15.3412509,49.0156398 C14.6940267,45.2475469 14.6169233,41.2338763 15.0973371,37.7150317 C15.1570181,37.275635 15.542906,36.9529702 15.9903284,36.9529702 L91.5365095,36.9529702 Z" id="Fill-1" fill="#FFE8E6"></path>
                                        <path d="M96.8462681,9.97654467 L94.7818974,8.95495648 L96.8462681,7.42459315 L96.8462681,9.97654467 Z M88.1395095,33.256862 L82.8838716,33.256862 L92.1837336,11.7836876 L96.3202595,13.8246615 L88.1395095,33.256862 Z M91.5365095,36.9530069 C92.2182078,36.9530069 92.7820267,37.4650858 92.8595009,38.135744 C93.027794,39.5959947 93.1119405,41.0621188 93.1119405,42.4966738 L93.1156474,49.2487734 C93.1267681,64.0506061 85.7518974,77.9112416 73.4116388,86.3229173 L72.5909319,86.8783118 L72.5909319,108.855122 C72.5909319,109.961139 71.6857078,110.857552 70.5688198,110.857552 L37.2964578,110.857552 C36.1799405,110.857552 35.2747164,109.961139 35.2747164,108.855122 L35.2747164,97.477794 C35.2747164,95.683499 33.806044,94.2291215 31.9941129,94.2291215 L18.6392767,94.2291215 C17.5223888,94.2291215 16.6171647,93.3327082 16.6171647,92.2270583 L16.6171647,73.6119815 C16.6171647,72.4883446 15.8327853,71.5141099 14.7266474,71.2641274 L7.42962155,69.6155637 C5.97874224,69.2881269 5.25404397,67.6707652 5.98207845,66.3856124 L15.4468974,49.6745881 L15.3412509,49.0156765 C14.6940267,45.2472165 14.6169233,41.233913 15.0973371,37.7150684 C15.1570181,37.2756717 15.542906,36.9530069 15.9903284,36.9530069 L91.5365095,36.9530069 Z M25.9459405,18.5115598 C24.7649233,18.5115598 23.8381991,17.4187577 24.1377164,16.2033504 C24.3011905,15.5400339 24.852406,15.0055631 25.5259491,14.8601987 C26.7410698,14.5981025 27.8116216,15.5077307 27.8116216,16.664405 C27.8116216,17.6837907 26.9775698,18.5115598 25.9459405,18.5115598 L25.9459405,18.5115598 Z M12.886544,16.664405 C12.886544,9.53311006 18.7467767,3.73028357 25.9459405,3.73028357 C33.1469578,3.73028357 39.0071905,9.53311006 39.0071905,16.664405 C39.0071905,21.2529254 36.5028112,25.5422743 32.4756388,27.8534203 L31.5440957,28.3856887 L31.5440957,33.256862 L27.8116216,33.256862 L27.8116216,21.8648505 C29.9508716,21.1097636 31.5033198,19.1190799 31.5433543,16.7558083 C31.5933974,13.7894216 29.1701991,11.2433434 26.1768802,11.1233077 C22.9859836,10.9955633 20.3485267,13.5306291 20.3485267,16.6622025 C20.3485267,19.0665872 21.9150612,21.0994853 24.0810009,21.8648505 L24.0810009,33.256862 L20.3485267,33.256862 L20.3485267,28.3856887 L19.4180957,27.8512178 C15.3890698,25.5404389 12.886544,21.2529254 12.886544,16.664405 L12.886544,16.664405 Z M48.0327422,18.616178 L49.7038112,22.2568937 C45.8219491,22.5142179 42.7378112,25.6898411 42.7378112,29.5963239 L42.7378112,33.256862 L35.2747164,33.256862 L35.2747164,30.473649 C39.009044,27.9954809 41.5423371,24.12901 42.3975181,19.8205729 L46.1600181,17.9591019 C46.8595095,17.6129439 47.7095009,17.9110142 48.0327422,18.616178 L48.0327422,18.616178 Z M54.7681733,33.256862 L46.4702853,33.256862 L46.4702853,29.5985264 C46.4702853,27.5469071 48.1654491,25.8682428 50.2372336,25.8682428 L51.3759922,25.8682428 L51.3759922,25.8664074 L54.7681733,33.256862 Z M50.4003371,6.61554522 L55.3268026,8.70570805 C55.9695784,8.97844971 55.9929319,9.87229349 55.3649836,10.1773383 L55.2137422,10.2511217 L60.7770526,22.1713637 L53.7788026,22.1713637 L49.2311819,12.2880577 C48.5943371,12.6066846 47.8796474,12.0211894 48.0761129,11.3420884 L49.2916043,7.13716823 C49.4272767,6.66840498 49.9473543,6.42356153 50.4003371,6.61554522 L50.4003371,6.61554522 Z M65.9426129,33.256862 L58.8657767,33.256862 L55.4739664,25.8664074 L62.498906,25.8664074 L65.9426129,33.256862 Z M72.5909319,7.42459315 L76.3241474,7.42459315 L76.3241474,3.73028357 L72.5909319,3.73028357 L72.5909319,7.42459315 Z M89.7327336,8.07432764 L78.8240784,33.256862 L70.0543026,33.256862 L66.6105957,25.8664074 L68.8603112,25.8664074 C72.9823802,25.8664074 76.3237767,22.5571665 76.3237767,18.4752187 L76.3237767,11.0847641 L77.3216733,11.0847641 C78.8311216,11.0847641 80.0543974,9.87302765 80.0543974,8.37863832 L80.0543974,2.70612581 C80.0543974,1.21173648 78.8311216,0 77.3216733,0 L71.5930353,0 C70.0835871,0 68.8603112,1.21173648 68.8603112,2.70612581 L68.8603112,8.37863832 C68.8603112,9.87302765 70.0835871,11.0847641 71.5930353,11.0847641 L72.5909319,11.0847641 L72.5909319,18.5115598 C72.5909319,20.5330783 70.9361733,22.1713637 68.895156,22.1713637 L64.8868888,22.1713637 L60.6458284,13.0831565 C60.3526129,12.4543457 60.6172853,11.7088029 61.2430095,11.3997202 L64.250044,9.9159762 C64.8739147,9.60836179 64.8479664,8.71818883 64.2074147,8.44654842 L47.9782509,1.5630336 C47.5252681,1.37068282 47.0048198,1.61589336 46.8695181,2.08502369 L42.7266905,16.4426877 C42.6080698,7.3735688 35.1312595,0.0337715104 25.9459405,0.0337715104 C16.6864836,0.0337715104 9.15406983,7.49287033 9.15406983,16.6622025 C9.15406983,22.2021985 11.9876216,27.4008086 16.6171647,30.473649 L16.6171647,33.256862 L13.6564664,33.256862 C12.752725,33.256862 11.9765009,33.8930144 11.8078371,34.772542 C10.9007595,39.430808 10.8169836,44.2168183 11.5568802,48.990715 L0.286431897,68.8858054 C-0.441602586,70.1705912 0.282725,71.7875858 1.73286293,72.1157567 L10.9949147,74.2117929 C12.1006819,74.4617755 12.8846905,75.4360101 12.8846905,76.5589129 L12.8846905,95.9232033 C12.8846905,97.0288531 13.7899147,97.9252665 14.9068026,97.9252665 L29.5219836,97.9252665 C30.6388716,97.9252665 31.5440957,98.8216799 31.5440957,99.9276968 L31.5440957,111.190128 C31.5440957,113.047562 33.0646647,114.553697 34.940725,114.553697 L72.6539491,114.553697 C74.6808802,114.553697 76.3237767,112.926792 76.3237767,110.919589 L76.3237767,88.8065916 C89.3831733,79.6563477 96.8421905,64.9470195 96.8310698,49.2520771 L96.834406,42.5117241 C96.834406,39.9711521 96.5993888,37.3604676 96.1208284,34.7894278 C95.9618026,33.9025586 95.1833543,33.256862 94.2736819,33.256862 L92.1815095,33.256862 L100.578742,13.3375441 L100.578742,3.835636 C100.578742,2.2685645 98.7723716,1.37288531 97.5053543,2.31224722 L89.7327336,8.07432764 Z" id="Fill-3" fill="#000000"></path>
                                        <path d="M29.6785259,48.0377711 C27.0288362,48.0377711 24.8017328,46.6755311 24.225681,43.9510512 C24.0462672,43.1023585 23.2856121,42.4966738 22.4096724,42.4966738 L22.4096724,42.4966738 C21.2390345,42.4966738 20.3323276,43.5604764 20.5818017,44.6932903 C21.5292845,48.9932846 25.2484138,51.7342831 29.6785259,51.7342831 C34.1086379,51.7342831 37.8266552,48.9929175 38.7737672,44.6932903 C39.0232414,43.5604764 38.1165345,42.4966738 36.9458966,42.4966738 L36.9458966,42.4966738 C36.0699569,42.4966738 35.3093017,43.1023585 35.1298879,43.9514183 C34.5542069,46.6758982 32.3285862,48.0377711 29.6785259,48.0377711" id="Fill-5" fill="#000000"></path>
                                        <path d="M12.8859509,16.669691 C12.8859509,9.53876312 18.7461836,3.73556955 25.9453474,3.73556955 C33.1463647,3.73556955 39.0065974,9.53876312 39.0065974,16.669691 C39.0065974,21.2582114 36.5022181,25.5475603 32.4750457,27.8587063 L31.5431319,28.3913417 L31.5431319,33.2621479 L27.8106578,33.2621479 L27.8106578,21.8705036 C29.9502784,21.1150496 31.502356,19.1243658 31.5423905,16.7614614 C31.5928043,13.7947076 29.169606,11.2486294 26.1759164,11.1285937 C22.9853905,11.0012163 20.3475629,13.535915 20.3475629,16.6678555 C20.3475629,19.0718732 21.9144681,21.1051383 24.0800371,21.8705036 L24.0800371,33.2621479 L20.3475629,33.2621479 L20.3475629,28.3913417 L19.4175026,27.8568709 C15.388106,25.5457249 12.8859509,21.2582114 12.8859509,16.669691" id="Fill-7" fill="#FCD224"></path>
                                        <polygon id="Fill-11" fill="#56963C" points="66.006631 33.3951783 58.9297948 33.3951783 55.5376138 26.0047238 62.5629241 26.0047238"></polygon>
                                        <path d="M50.4641328,6.75400842 L55.3905983,8.84417125 C56.0337448,9.1169129 56.0567276,10.0107567 55.42915,10.3158015 L55.2775379,10.3895849 L60.8408483,22.3098269 L53.8425983,22.3098269 L49.2949776,12.4265209 L49.2949776,12.4265209 C48.6581328,12.7451478 47.9434431,12.1596526 48.1399086,11.4805515 L49.3554,7.27563142 C49.4910724,6.80686817 50.0115207,6.56202472 50.4641328,6.75400842" id="Fill-13" fill="#56963C"></path>
                                    </g>
                                </g>
                            </g>
                        </g>
                    </g>
                </g>
            </g>
        </g>
    </g>
</svg>