<?xml version="1.0" encoding="UTF-8"?>
<svg width="80px" height="100px" viewBox="0 0 80 100" version="1.1" xmlns="http://www.w3.org/2000/svg" xmlns:xlink="http://www.w3.org/1999/xlink">
    <!-- Generator: Sketch 52.5 (67469) - http://www.bohemiancoding.com/sketch -->
    <title>宣战</title>
    <desc>Created with Sketch.</desc>
    <defs>
        <path d="M47.7622649,54.9087634 C46.8630988,55.6972093 43.9873349,57.9661015 39.1349731,61.7154402 L39.1349722,61.7154391 C35.3477266,64.6417803 32.8043984,68.8896309 32.0133647,73.6099029 C31.0642504,79.2734764 30.3931288,82.1052632 30,82.1052632 C29.60403,82.1052632 28.9158275,79.2323971 27.9353925,73.4866651 L27.9353931,73.486665 C27.1406576,68.829205 24.6391221,64.6349377 20.918908,61.7222852 C15.1256314,57.1865779 12.228993,54.9187243 12.228993,54.9187243 C12.228993,54.9187243 8.6938222,51.4750413 7.22409046,49.526656 C2.72089919,44.2790088 9.13250276e-16,37.4572544 0,30 C-2.02906125e-15,13.4314575 13.4314575,3.04359188e-15 30,0 C46.5685425,-3.04359188e-15 60,13.4314575 60,30 C60,37.5001172 57.2477325,44.357408 52.6980827,49.6169871 C51.2448321,51.5276555 49.5942718,53.3023435 47.7622649,54.9087634 Z" id="path-1"></path>
        <filter x="-27.5%" y="-16.4%" width="155.0%" height="139.5%" filterUnits="objectBoundingBox" id="filter-2">
            <feOffset dx="0" dy="3" in="SourceAlpha" result="shadowOffsetOuter1"></feOffset>
            <feGaussianBlur stdDeviation="5" in="shadowOffsetOuter1" result="shadowBlurOuter1"></feGaussianBlur>
            <feColorMatrix values="0 0 0 0 0   0 0 0 0 0   0 0 0 0 0  0 0 0 0.2 0" type="matrix" in="shadowBlurOuter1"></feColorMatrix>
        </filter>
        <circle id="path-3" cx="27" cy="27" r="25.2580645"></circle>
        <polygon id="path-5" points="0 44.3495354 47.8985409 44.3495354 47.8985409 0.0281584351 0 0.0281584351"></polygon>
        <polygon id="path-7" points="0 44.3213769 49.3365225 44.3213769 49.3365225 0 0 0"></polygon>
        <filter x="0.0%" y="0.0%" width="100.0%" height="100.0%" filterUnits="objectBoundingBox" id="filter-9">
            <feGaussianBlur stdDeviation="0" in="SourceGraphic"></feGaussianBlur>
        </filter>
        <circle id="path-10" cx="27.2580645" cy="27.2580645" r="25.2580645"></circle>
        <circle id="path-12" cx="29" cy="29" r="29"></circle>
    </defs>
    <g id="Page-1" stroke="none" stroke-width="1" fill="none" fill-rule="evenodd">
        <g id="图标" transform="translate(-743.000000, -1948.000000)">
            <g id="其他-copy-6" transform="translate(743.000000, 1948.000000)">
                <g id="其他" transform="translate(10.000000, 7.000000)">
                    <g id="Combined-Shape">
                        <use fill="black" fill-opacity="1" filter="url(#filter-2)" xlink:href="#path-1"></use>
                        <use fill="#FFFFFF" fill-rule="evenodd" xlink:href="#path-1"></use>
                    </g>
                    <rect id="Rectangle-6-Copy-3" stroke="#FFFFFF" stroke-width="3" fill="#FFFFFF" x="1.5" y="1.5" width="57" height="57" rx="28.5"></rect>
                    <g id="Group-Copy" transform="translate(3.000000, 3.000000)">
                        <path d="M0,27 C0,12.0883118 12.0850331,0 27,0 L27,0 C41.9116882,0 54,12.0850331 54,27 L54,27 C54,41.9116882 41.9149669,54 27,54 L27,54 C12.0883118,54 0,41.9149669 0,27 L0,27 Z" id="Rectangle-6" stroke="#F67E42" stroke-width="2" fill="#F67E42"></path>
                        <mask id="mask-4" fill="white">
                            <use xlink:href="#path-3"></use>
                        </mask>
                        <g id="Oval"></g>
                        <g id="学校" mask="url(#mask-4)">
                            <g transform="translate(0.000000, 9.580645)">
                                <g id="群组-19" stroke-width="1" fill="none" transform="translate(3.483871, 0.089168)">
                                    <path d="M9.05968294,31.6916383 L6.58815758,31.6916383 C6.08710624,31.6916383 5.68092436,31.2847489 5.68092436,30.7828248 L5.68092436,26.9983311 C5.68092436,26.496407 6.08710624,26.0895176 6.58815758,26.0895176 L9.05968294,26.0895176 C9.56073429,26.0895176 9.96691616,26.496407 9.96691616,26.9983311 L9.96691616,30.7828248 C9.96691616,31.2847489 9.56073429,31.6916383 9.05968294,31.6916383 L9.05968294,31.6916383 Z" id="Fill-1" fill="#C7E4F9"></path>
                                    <path d="M15.8056049,31.6916383 L13.3340796,31.6916383 C12.8330282,31.6916383 12.4268464,31.2847489 12.4268464,30.7828248 L12.4268464,26.9983311 C12.4268464,26.496407 12.8330282,26.0895176 13.3340796,26.0895176 L15.8056049,26.0895176 C16.3066563,26.0895176 16.7128382,26.496407 16.7128382,26.9983311 L16.7128382,30.7828248 C16.7128382,31.2847489 16.3066563,31.6916383 15.8056049,31.6916383" id="Fill-3" fill="#C7E4F9"></path>
                                    <path d="M34.1115943,31.6916383 L31.6400689,31.6916383 C31.1390176,31.6916383 30.7328357,31.2847489 30.7328357,30.7828248 L30.7328357,26.9983311 C30.7328357,26.496407 31.1390176,26.0895176 31.6400689,26.0895176 L34.1115943,26.0895176 C34.6126456,26.0895176 35.0188275,26.496407 35.0188275,26.9983311 L35.0188275,30.7828248 C35.0188275,31.2847489 34.6126456,31.6916383 34.1115943,31.6916383" id="Fill-5" fill="#C7E4F9"></path>
                                    <path d="M41.2917608,31.6916383 L38.8202354,31.6916383 C38.3191841,31.6916383 37.9130022,31.2847489 37.9130022,30.7828248 L37.9130022,26.9983311 C37.9130022,26.496407 38.3191841,26.0895176 38.8202354,26.0895176 L41.2917608,26.0895176 C41.7928121,26.0895176 42.198994,26.496407 42.198994,26.9983311 L42.198994,30.7828248 C42.198994,31.2847489 41.7928121,31.6916383 41.2917608,31.6916383" id="Fill-7" fill="#C7E4F9"></path>
                                    <path d="M34.5452532,40.326833 L32.0737278,40.326833 C31.5726765,40.326833 31.1664946,39.9199437 31.1664946,39.4180196 L31.1664946,35.6335259 C31.1664946,35.1316018 31.5726765,34.7247124 32.0737278,34.7247124 L34.5452532,34.7247124 C35.0463045,34.7247124 35.4524864,35.1316018 35.4524864,35.6335259 L35.4524864,39.4180196 C35.4524864,39.9199437 35.0463045,40.326833 34.5452532,40.326833" id="Fill-9" fill="#C7E4F9"></path>
                                    <path d="M41.2917608,40.326833 L38.8202354,40.326833 C38.3191841,40.326833 37.9130022,39.9199437 37.9130022,39.4180196 L37.9130022,35.6335259 C37.9130022,35.1316018 38.3191841,34.7247124 38.8202354,34.7247124 L41.2917608,34.7247124 C41.7928121,34.7247124 42.198994,35.1316018 42.198994,35.6335259 L42.198994,39.4180196 C42.198994,39.9199437 41.7928121,40.326833 41.2917608,40.326833" id="Fill-11" fill="#C7E4F9"></path>
                                    <path d="M15.8056049,40.326833 L13.3340796,40.326833 C12.8330282,40.326833 12.4268464,39.9199437 12.4268464,39.4180196 L12.4268464,35.6335259 C12.4268464,35.1316018 12.8330282,34.7247124 13.3340796,34.7247124 L15.8056049,34.7247124 C16.3066563,34.7247124 16.7128382,35.1316018 16.7128382,35.6335259 L16.7128382,39.4180196 C16.7128382,39.9199437 16.3066563,40.326833 15.8056049,40.326833" id="Fill-13" fill="#C7E4F9"></path>
                                    <path d="M9.05968294,40.326833 L6.58815758,40.326833 C6.08710624,40.326833 5.68092436,39.9199437 5.68092436,39.4180196 L5.68092436,35.6335259 C5.68092436,35.1316018 6.08710624,34.7247124 6.58815758,34.7247124 L9.05968294,34.7247124 C9.56073429,34.7247124 9.96691616,35.1316018 9.96691616,35.6335259 L9.96691616,39.4180196 C9.96691616,39.9199437 9.56073429,40.326833 9.05968294,40.326833" id="Fill-15" fill="#C7E4F9"></path>
                                    <mask id="mask-6" fill="white">
                                        <use xlink:href="#path-5"></use>
                                    </mask>
                                    <g id="Clip-18"></g>
                                    <polygon id="Fill-17" fill="#DED8CC" mask="url(#mask-6)" points="19.3514978 43.923639 28.5471603 43.923639 28.5471603 31.8768738 19.3514978 31.8768738"></polygon>
                                </g>
                                <path d="M28.1262742,42.9182656 L31.2186675,42.9182656 L31.2186675,35.3153707 L28.1262742,35.3153707 L28.1262742,42.9182656 Z M23.6289928,42.9182656 L26.7208005,42.9182656 L26.7208005,35.3153707 L23.6289928,35.3153707 L23.6289928,42.9182656 Z M31.2186675,33.907449 L23.6289928,33.907449 L23.6289928,33.1095093 C23.6289928,32.6695338 23.9863345,32.3115697 24.425545,32.3115697 L30.4221153,32.3115697 C30.8613258,32.3115697 31.2186675,32.6695338 31.2186675,33.1095093 L31.2186675,33.907449 Z M7.13798525,23.3013397 L15.4303967,23.3013397 C15.4532357,23.3013397 15.4766602,23.2999318 15.4999677,23.2975853 C15.5100402,23.296764 15.5196443,23.2948868 15.5297169,23.2934788 C15.5424832,23.2917189 15.5552496,23.2898417 15.5681331,23.2874952 C15.579494,23.285266 15.5905036,23.2820981 15.6015131,23.2792823 C15.6125227,23.2765838 15.6238836,23.2737679 15.6344246,23.2706001 C15.6454342,23.2674323 15.6564437,23.2632085 15.6673361,23.2591021 C15.6778772,23.255465 15.6888867,23.2518278 15.6994278,23.2472521 C15.7099688,23.2430283 15.7195729,23.2381006 15.7296455,23.2334075 C15.7401865,23.2283625 15.7510789,23.2234347 15.76162,23.2179204 C15.7712241,23.2128753 15.7803596,23.2068917 15.7899637,23.2013773 C15.8000363,23.1949243 15.8105773,23.189058 15.8206499,23.182605 C15.8311909,23.1752134 15.840795,23.1674698 15.8508676,23.1600783 C15.8590662,23.1537426 15.8677333,23.1482282 15.8755805,23.141306 C15.8938516,23.1266401 15.9108345,23.1110356 15.9272316,23.0946099 L27.4235373,11.5782792 L38.9204287,23.0946099 C38.9363574,23.1110356 38.9538087,23.1266401 38.9716113,23.141306 C38.9798099,23.1482282 38.9881256,23.1537426 38.9963242,23.1600783 C39.0063968,23.1674698 39.0164694,23.1756827 39.0270104,23.182605 C39.037083,23.189058 39.0471555,23.1949243 39.0575795,23.200908 C39.0671835,23.2068917 39.0764362,23.2128753 39.0860403,23.2179204 C39.0964642,23.2234347 39.1070053,23.2283625 39.1180148,23.2334075 C39.1280874,23.2381006 39.1381599,23.2430283 39.1482325,23.2477214 C39.1587736,23.2518278 39.1693146,23.255465 39.1797385,23.2591021 C39.1907481,23.2632085 39.2017576,23.2674323 39.2132357,23.2706001 C39.2236596,23.2742372 39.2346691,23.2765838 39.2452102,23.2792823 C39.2566882,23.2820981 39.2680491,23.285266 39.2795272,23.2874952 C39.2918251,23.2898417 39.3047086,23.2917189 39.3170065,23.2930095 C39.327079,23.2948868 39.3371516,23.296764 39.3476926,23.2975853 C39.3705316,23.2999318 39.3939561,23.3013397 39.4172636,23.3013397 L47.7096751,23.3013397 L47.7096751,42.9182656 L32.6241411,42.9182656 L32.6241411,33.1095093 C32.6241411,31.8931823 31.6363274,30.9036479 30.4221153,30.9036479 L24.425545,30.9036479 C23.2113329,30.9036479 22.2235192,31.8931823 22.2235192,33.1095093 L22.2235192,42.9182656 L7.13798525,42.9182656 L7.13798525,23.3013397 Z M9.81951179,15.0411801 L21.979201,15.0411801 L15.1394637,21.893418 L5.46676,21.893418 L9.81951179,15.0411801 Z M33.60645,3.02714911 L32.8354306,4.18528208 C32.6781347,4.42181293 32.6781347,4.72979582 32.8354306,4.96620935 L33.60645,6.12434232 L28.1262742,6.12434232 L28.1262742,3.02714911 L33.60645,3.02714911 Z M45.0281485,15.0411801 L49.3809003,21.893418 L39.7081966,21.893418 L32.8684593,15.0411801 L45.0281485,15.0411801 Z M50.6610525,42.9182656 L49.1151487,42.9182656 L49.1151487,23.3013397 L50.6610525,23.3013397 C50.9172001,23.3013397 51.1533197,23.1610169 51.2768842,22.935984 C51.4003317,22.7104819 51.3916646,22.4360545 51.2539281,22.2192345 L46.0067095,13.9591922 C45.8777573,13.7560995 45.6540528,13.6332584 45.4138339,13.6332584 L31.4629856,13.6332584 L28.1262742,10.2913214 L28.1262742,7.53226408 L34.9193966,7.53226408 C35.1788236,7.53226408 35.4171685,7.38924269 35.5393276,7.16057273 C35.6614867,6.93190277 35.6482518,6.6537209 35.5041908,6.43783956 L34.2651487,4.57574571 L35.5046593,2.71365186 C35.6482518,2.49777052 35.6614867,2.21958865 35.5393276,1.99091869 C35.4171685,1.76224873 35.1788236,1.61922735 34.9193966,1.61922735 L28.1262742,1.61922735 L28.1262742,0.821287692 C28.1262742,0.432701287 27.8120337,0.117326813 27.4235373,0.117326813 C27.0356266,0.117326813 26.7208005,0.432701287 26.7208005,0.821287692 L26.7208005,10.2913214 L23.3846747,13.6332584 L9.43382641,13.6332584 C9.19360754,13.6332584 8.96990299,13.7560995 8.84083366,13.9595442 L3.59373216,22.2192345 C3.45599574,22.4360545 3.44732865,22.7104819 3.5703076,22.935984 C3.69387215,23.1610169 3.93034309,23.3013397 4.18660778,23.3013397 L5.73251163,23.3013397 L5.73251163,42.9182656 L4.18660778,42.9182656 C3.79869706,42.9182656 3.48387097,43.2335227 3.48387097,43.6222264 C3.48387097,44.0108128 3.79869706,44.3261873 4.18660778,44.3261873 L50.6610525,44.3261873 C51.0489632,44.3261873 51.3637893,44.0108128 51.3637893,43.6222264 C51.3637893,43.2335227 51.0489632,42.9182656 50.6610525,42.9182656 L50.6610525,42.9182656 Z" id="Fill-20" fill="#000000"></path>
                                <g id="群组-38" stroke-width="1" fill="none" transform="translate(0.000000, 0.089168)">
                                    <path d="M27.4235373,19.4577133 C29.5162876,19.4577133 31.2186675,21.1625893 31.2186675,23.2588674 C31.2186675,25.3551456 29.5162876,27.0600215 27.4235373,27.0600215 C25.3313727,27.0600215 23.6289928,25.3551456 23.6289928,23.2588674 C23.6289928,21.1625893 25.3313727,19.4577133 27.4235373,19.4577133 L27.4235373,19.4577133 Z M27.4235373,28.4679433 C30.2912891,28.4679433 32.6241411,26.1310278 32.6241411,23.2588674 C32.6241411,20.386707 30.2912891,18.0497916 27.4235373,18.0497916 C24.5563712,18.0497916 22.2235192,20.386707 22.2235192,23.2588674 C22.2235192,26.1310278 24.5563712,28.4679433 27.4235373,28.4679433 L27.4235373,28.4679433 Z" id="Fill-22" fill="#000000"></path>
                                    <path d="M27.4235373,23.9628283 C27.8120337,23.9628283 28.1262742,23.6475712 28.1262742,23.2588674 L28.1262742,21.0063099 C28.1262742,20.6176062 27.8120337,20.3023491 27.4235373,20.3023491 C27.0356266,20.3023491 26.7208005,20.6176062 26.7208005,21.0063099 L26.7208005,22.5549066 L25.1748967,22.5549066 C24.786986,22.5549066 24.4721599,22.870281 24.4721599,23.2588674 C24.4721599,23.6475712 24.786986,23.9628283 25.1748967,23.9628283 L27.4235373,23.9628283 Z" id="Fill-24" fill="#000000"></path>
                                    <mask id="mask-8" fill="white">
                                        <use xlink:href="#path-7"></use>
                                    </mask>
                                    <g id="Clip-27"></g>
                                    <path d="M16.8824852,39.0746392 L19.2249412,39.0746392 L19.2249412,38.2300034 L16.8824852,38.2300034 L16.8824852,39.0746392 Z M16.8824852,36.8220817 L19.2249412,36.8220817 L19.2249412,35.9768593 L16.8824852,35.9768593 L16.8824852,36.8220817 Z M19.9276781,34.5689376 L16.1797484,34.5689376 C15.7918377,34.5689376 15.4770116,34.884312 15.4770116,35.2728984 L15.4770116,39.7786 C15.4770116,40.1671864 15.7918377,40.4825609 16.1797484,40.4825609 L19.9276781,40.4825609 C20.3161744,40.4825609 20.6304149,40.1671864 20.6304149,39.7786 L20.6304149,35.2728984 C20.6304149,34.884312 20.3161744,34.5689376 19.9276781,34.5689376 L19.9276781,34.5689376 Z" id="Fill-26" fill="#000000" mask="url(#mask-8)"></path>
                                    <path d="M10.1365632,39.0746392 L12.4790192,39.0746392 L12.4790192,38.2300034 L10.1365632,38.2300034 L10.1365632,39.0746392 Z M10.1365632,36.8220817 L12.4790192,36.8220817 L12.4790192,35.9768593 L10.1365632,35.9768593 L10.1365632,36.8220817 Z M13.1817561,34.5689376 L9.43382641,34.5689376 C9.04579856,34.5689376 8.7310896,34.884312 8.7310896,35.2728984 L8.7310896,39.7786 C8.7310896,40.1671864 9.04579856,40.4825609 9.43382641,40.4825609 L13.1817561,40.4825609 C13.5696668,40.4825609 13.8844929,40.1671864 13.8844929,39.7786 L13.8844929,35.2728984 C13.8844929,34.884312 13.5696668,34.5689376 13.1817561,34.5689376 L13.1817561,34.5689376 Z" id="Fill-28" fill="#000000" mask="url(#mask-8)"></path>
                                    <path d="M16.8824852,30.8144795 L19.2249412,30.8144795 L19.2249412,29.9698438 L16.8824852,29.9698438 L16.8824852,30.8144795 Z M16.8824852,28.5619221 L19.2249412,28.5619221 L19.2249412,26.9666294 L16.8824852,26.9666294 L16.8824852,28.5619221 Z M19.6934324,25.5587076 L16.413994,25.5587076 C15.8974825,25.5587076 15.4770116,25.9794416 15.4770116,26.4973221 L15.4770116,31.5184404 C15.4770116,31.9076135 15.7918377,32.2224013 16.1797484,32.2224013 L19.9276781,32.2224013 C20.3161744,32.2224013 20.6304149,31.9076135 20.6304149,31.5184404 L20.6304149,26.4973221 C20.6304149,25.9794416 20.2104125,25.5587076 19.6934324,25.5587076 L19.6934324,25.5587076 Z" id="Fill-29" fill="#000000" mask="url(#mask-8)"></path>
                                    <path d="M10.1365632,30.8144795 L12.4790192,30.8144795 L12.4790192,29.9698438 L10.1365632,29.9698438 L10.1365632,30.8144795 Z M10.1365632,28.5619221 L12.4790192,28.5619221 L12.4790192,26.9666294 L10.1365632,26.9666294 L10.1365632,28.5619221 Z M12.9475105,25.5587076 L9.66807201,25.5587076 C9.15156045,25.5587076 8.7310896,25.9794416 8.7310896,26.4973221 L8.7310896,31.5184404 C8.7310896,31.9076135 9.04579856,32.2224013 9.43382641,32.2224013 L13.1817561,32.2224013 C13.5696668,32.2224013 13.8844929,31.9076135 13.8844929,31.5184404 L13.8844929,26.4973221 C13.8844929,25.9794416 13.464022,25.5587076 12.9475105,25.5587076 L12.9475105,25.5587076 Z" id="Fill-30" fill="#000000" mask="url(#mask-8)"></path>
                                    <path d="M42.3686411,36.8220817 L44.7110971,36.8220817 L44.7110971,35.9768593 L42.3686411,35.9768593 L42.3686411,36.8220817 Z M42.3686411,39.0746392 L44.7110971,39.0746392 L44.7110971,38.2300034 L42.3686411,38.2300034 L42.3686411,39.0746392 Z M41.6659043,40.4825609 L45.4138339,40.4825609 C45.8017446,40.4825609 46.1165707,40.1671864 46.1165707,39.7786 L46.1165707,35.2728984 C46.1165707,34.884312 45.8017446,34.5689376 45.4138339,34.5689376 L41.6659043,34.5689376 C41.2779935,34.5689376 40.9631674,34.884312 40.9631674,35.2728984 L40.9631674,39.7786 C40.9631674,40.1671864 41.2779935,40.4825609 41.6659043,40.4825609 L41.6659043,40.4825609 Z" id="Fill-31" fill="#000000" mask="url(#mask-8)"></path>
                                    <path d="M35.6221334,36.8220817 L37.9645895,36.8220817 L37.9645895,35.9768593 L35.6221334,35.9768593 L35.6221334,36.8220817 Z M35.6221334,39.0746392 L37.9645895,39.0746392 L37.9645895,38.2300034 L35.6221334,38.2300034 L35.6221334,39.0746392 Z M34.9193966,40.4825609 L38.6673263,40.4825609 C39.0558226,40.4825609 39.3700631,40.1671864 39.3700631,39.7786 L39.3700631,35.2728984 C39.3700631,34.884312 39.0558226,34.5689376 38.6673263,34.5689376 L34.9193966,34.5689376 C34.5314859,34.5689376 34.2166598,34.884312 34.2166598,35.2728984 L34.2166598,39.7786 C34.2166598,40.1671864 34.5314859,40.4825609 34.9193966,40.4825609 L34.9193966,40.4825609 Z" id="Fill-32" fill="#000000" mask="url(#mask-8)"></path>
                                    <path d="M42.3686411,28.5619221 L44.7110971,28.5619221 L44.7110971,26.9666294 L42.3686411,26.9666294 L42.3686411,28.5619221 Z M42.3686411,30.8144795 L44.7110971,30.8144795 L44.7110971,29.9698438 L42.3686411,29.9698438 L42.3686411,30.8144795 Z M41.6659043,32.2224013 L45.4138339,32.2224013 C45.8017446,32.2224013 46.1165707,31.9076135 46.1165707,31.5184404 L46.1165707,26.4973221 C46.1165707,25.9794416 45.6960999,25.5587076 45.1795883,25.5587076 L41.9001499,25.5587076 C41.3836383,25.5587076 40.9631674,25.9794416 40.9631674,26.4973221 L40.9631674,31.5184404 C40.9631674,31.9076135 41.2779935,32.2224013 41.6659043,32.2224013 L41.6659043,32.2224013 Z" id="Fill-33" fill="#000000" mask="url(#mask-8)"></path>
                                    <path d="M35.6221334,28.5619221 L37.9645895,28.5619221 L37.9645895,26.9666294 L35.6221334,26.9666294 L35.6221334,28.5619221 Z M35.6221334,30.8144795 L37.9645895,30.8144795 L37.9645895,29.9698438 L35.6221334,29.9698438 L35.6221334,30.8144795 Z M34.9193966,32.2224013 L38.6673263,32.2224013 C39.0558226,32.2224013 39.3700631,31.9076135 39.3700631,31.5184404 L39.3700631,26.4973221 C39.3700631,25.9794416 38.9500607,25.5587076 38.4330807,25.5587076 L35.1536422,25.5587076 C34.6371307,25.5587076 34.2166598,25.9794416 34.2166598,26.4973221 L34.2166598,31.5184404 C34.2166598,31.9076135 34.5314859,32.2224013 34.9193966,32.2224013 L34.9193966,32.2224013 Z" id="Fill-34" fill="#000000" mask="url(#mask-8)"></path>
                                    <polygon id="Fill-35" fill="#F67E42" mask="url(#mask-8)" points="44.9837707 14.9387303 49.3365225 21.7909682 39.6638188 21.7909682 32.8240814 14.9387303"></polygon>
                                    <polygon id="Fill-36" fill="#F67E42" mask="url(#mask-8)" points="22.0235789 14.9387303 15.1838415 21.7909682 5.51113783 21.7909682 9.86388962 14.9387303"></polygon>
                                    <path d="M33.6161244,2.90084679 L32.845105,4.05897976 C32.6878091,4.29551062 32.6878091,4.6034935 32.845105,4.83990703 L33.6161244,5.99804 L28.1359485,5.99804 L28.1359485,2.90084679 L33.6161244,2.90084679 Z" id="Fill-37" fill="#FF5A5A" mask="url(#mask-8)"></path>
                                </g>
                            </g>
                        </g>
                    </g>
                    <g id="选中高亮-icon" transform="translate(0.000000, 7.000000)">
                        <ellipse id="Oval-2" fill="#999999" filter="url(#filter-9)" cx="30" cy="82" rx="6.5" ry="3"></ellipse>
                        <path d="M47.7622649,54.9087634 C46.8630988,55.6972093 43.9873349,57.9661015 39.1349731,61.7154402 L39.1349722,61.7154391 C35.3477266,64.6417803 32.8043984,68.8896309 32.0133647,73.6099029 C31.0642504,79.2734764 30.3931288,82.1052632 30,82.1052632 C29.60403,82.1052632 28.9158275,79.2323971 27.9353925,73.4866651 L27.9353931,73.486665 C27.1406576,68.829205 24.6391221,64.6349377 20.918908,61.7222852 C15.1256314,57.1865779 12.228993,54.9187243 12.228993,54.9187243 C12.228993,54.9187243 8.6938222,51.4750413 7.22409046,49.526656 C2.72089919,44.2790088 9.13250276e-16,37.4572544 0,30 C-2.02906125e-15,13.4314575 13.4314575,3.04359188e-15 30,0 C46.5685425,-3.04359188e-15 60,13.4314575 60,30 C60,37.5001172 57.2477325,44.357408 52.6980827,49.6169871 C51.2448321,51.5276555 49.5942718,53.3023435 47.7622649,54.9087634 Z" id="Combined-Shape" fill="#FFFFFF"></path>
                        <rect id="Rectangle-6-Copy-3" stroke="#FFFFFF" stroke-width="3" fill="#FFFFFF" x="1.5" y="1.5" width="57" height="57" rx="28.5"></rect>
                        <g id="Group-Copy" transform="translate(3.000000, 3.000000)">
                            <path d="M0,27 C0,12.0883118 12.0850331,0 27,0 L27,0 C41.9116882,0 54,12.0850331 54,27 L54,27 C54,41.9116882 41.9149669,54 27,54 L27,54 C12.0883118,54 0,41.9149669 0,27 L0,27 Z" id="Rectangle-6" stroke="#F67E42" stroke-width="2" fill-opacity="0.920000017" fill="#FFFFFF"></path>
                            <mask id="mask-11" fill="white">
                                <use xlink:href="#path-10"></use>
                            </mask>
                            <g id="Oval"></g>
                            <g id="Group" mask="url(#mask-11)">
                                <g transform="translate(-3.000000, -2.000000)">
                                    <g id="Group-109-Copy-2" stroke="none" stroke-width="1" fill-rule="evenodd">
                                        <mask id="mask-13" fill="white">
                                            <use xlink:href="#path-12"></use>
                                        </mask>
                                        <g id="Mask"></g>
                                        <g id="Group-109" mask="url(#mask-13)">
                                            <g transform="translate(2.416667, 4.833333)">
                                                <path d="M36.25,1.20833333 L38.6666667,1.20833333" id="Path-42" stroke="#FFE81A" stroke-width="1.5" fill="none" stroke-linecap="round" stroke-linejoin="round"></path>
                                                <path d="M37.4583333,2.41666667 L37.4583333,0" id="Path-42" stroke="#FFE81A" stroke-width="1.5" fill="none" stroke-linecap="round" stroke-linejoin="round"></path>
                                                <g id="Group-108" stroke="none" stroke-width="1" fill="none" fill-rule="evenodd" transform="translate(0.000000, 3.625000)">
                                                    <rect id="Rectangle-77" fill="#C0D3FF" x="25.375" y="1.20833333" width="3.625" height="14.5"></rect>
                                                    <g id="Group-106" transform="translate(24.770833, 0.794610)" stroke="#000000" stroke-linecap="round" stroke-linejoin="round" stroke-width="1.5">
                                                        <path d="M1,0.430934295 L3.83333333,0.430934295 C4.38561808,0.430934295 4.83333333,0.878649545 4.83333333,1.43093429 L4.83333333,4.05593429 L0,4.05593429 L0,1.43093429 C-6.76353751e-17,0.878649545 0.44771525,0.430934295 1,0.430934295 Z" id="Rectangle-73"></path>
                                                        <rect id="Rectangle-73-Copy" x="0" y="4.05593429" width="4.83333333" height="3.625"></rect>
                                                        <rect id="Rectangle-73-Copy-2" x="0" y="7.68093429" width="4.83333333" height="3.625"></rect>
                                                        <rect id="Rectangle-73-Copy-3" x="0" y="11.3059343" width="4.83333333" height="3.625"></rect>
                                                    </g>
                                                    <circle id="Oval-41-Copy-2" stroke="#000000" stroke-width="1.5" fill="#C0B9AE" stroke-linecap="round" stroke-linejoin="round" cx="45.3125" cy="42.8958333" r="5.4375"></circle>
                                                    <circle id="Oval-41-Copy-3" stroke="#000000" stroke-width="1.5" fill="#C0B9AE" stroke-linecap="round" stroke-linejoin="round" cx="6.04166667" cy="42.8958333" r="5.4375"></circle>
                                                    <g id="Group-107" transform="translate(0.604167, 34.437500)" fill="#C0B9AE" stroke="#000000" stroke-linecap="round" stroke-linejoin="round" stroke-width="1.5">
                                                        <path d="M17.3455735,0 L18.125,0 C20.9353773,-5.16257931e-16 23.3550677,1.98367161 23.906228,4.73947327 L26.5833333,18.125 L0,18.125 L10.8943335,3.26909069 C12.4013341,1.21408987 14.7972251,-2.19641127e-15 17.3455735,-2.66453526e-15 Z" id="Rectangle-75-Copy-2"></path>
                                                        <path d="M35.0610677,0 L35.612931,0 C38.2877565,-4.91357474e-16 40.7856071,1.33680908 42.2693333,3.56239843 L51.9777344,18.125 L26.6027344,18.125 L29.2798397,4.73947327 C29.831,1.98367161 32.2506904,5.16257931e-16 35.0610677,0 Z" id="Rectangle-75-Copy-3"></path>
                                                    </g>
                                                    <polygon id="Rectangle-74" stroke="#000000" stroke-width="1.5" fill="#EFEFEF" stroke-linecap="round" stroke-linejoin="round" points="23.5625 19.3333333 30.8125 19.3333333 33.2291667 47.125 21.1458333 47.125"></polygon>
                                                    <polygon id="Path-69" fill="#3A3AC8" points="16.9484784 24.1531815 21.0710778 20.5728758 32.9865752 20.4156374 36.6597852 24.1064951 37.7782921 23.9621915 39.2708333 21.4300069 34.4011926 15.8163138 19.9726085 15.6948482 17.2637703 18.9404666 15.1041667 21.2929791 15.4295629 22.8188785"></polygon>
                                                    <path d="M34.257331,15.7253609 L34.257331,15.7083333 L27.1875,15.7083333 M27.1875,20.4930892 L33.0166708,20.4930892 L37.128351,24.1666667 L39.2708333,21.6291667 L34.2717079,15.7083333 M21.3583292,20.4930892 L27.1875,20.4930892 M27.1875,15.7083333 L25.1675483,15.7083333 L20.117669,15.7083333 L15.1041667,21.6291667 L17.246649,24.1666667 L21.3583292,20.4930892" id="Combined-Shape" stroke="#000000" stroke-width="1.5" stroke-linecap="round" stroke-linejoin="round"></path>
                                                    <path d="M26.3077404,37.4583333 L28.0672596,37.4583333 C31.5107028,37.4583333 34.5678136,39.6617741 35.656726,42.9285112 L38.6666667,51.9583333 L15.7083333,51.9583333 L18.718274,42.9285112 C19.8071864,39.6617741 22.8642972,37.4583333 26.3077404,37.4583333 Z" id="Rectangle-75-Copy" stroke="#000000" stroke-width="1.5" fill="#C0B9AE" stroke-linecap="round" stroke-linejoin="round"></path>
                                                    <path d="M27.1875,24.1531815 L27.1875,26.6775298 M27.1875,29.1780048 L27.1875,34.9948473" id="Path-72" stroke="#000000" stroke-width="1.5" stroke-linecap="round" stroke-linejoin="round"></path>
                                                </g>
                                                <polygon id="Star-2-Copy" stroke="#FFB81A" stroke-width="1.5" fill="none" stroke-linecap="round" stroke-linejoin="round" transform="translate(42.438262, 31.563262) rotate(-45.000000) translate(-42.438262, -31.563262) " points="42.4382621 31.768957 41.156631 32.8448931 42.2325672 31.5632621 41.156631 30.281631 42.4382621 31.3575672 43.7198931 30.281631 42.643957 31.5632621 43.7198931 32.8448931"></polygon>
                                                <polygon id="Star-2" stroke="#FFE81A" stroke-width="1.5" fill="#FFE81A" fill-rule="evenodd" stroke-linecap="round" stroke-linejoin="round" transform="translate(14.716726, 12.022612) rotate(-45.000000) translate(-14.716726, -12.022612) " points="14.7167258 13.1979355 11.7262534 15.013084 13.5414018 12.0226115 11.7262534 9.0321391 14.7167258 10.8472875 17.7071982 9.0321391 15.8920498 12.0226115 17.7071982 15.013084"></polygon>
                                            </g>
                                        </g>
                                    </g>
                                    <circle id="Oval-33-Copy-9" stroke="#000000" stroke-width="1.5" stroke-linecap="round" stroke-linejoin="round" cx="29" cy="29" r="29"></circle>
                                </g>
                            </g>
                        </g>
                    </g>
                </g>
            </g>
        </g>
    </g>
</svg>